<?xml version="1.0" encoding="UTF-8"?><svg id="a" xmlns="http://www.w3.org/2000/svg" viewBox="0 0 392 153.46"><rect x="164" y="48" width="27.17" height="49" fill="#efecf4" stroke-width="0"/><line x1="164" y1="93.98" x2="164" y2="48" fill="#e6e6e6" stroke="gray" stroke-dasharray="0 .64" stroke-miterlimit="10" stroke-width=".25"/><line x1="191.17" y1="48" x2="191.17" y2="93.98" fill="#e6e6e6" stroke="gray" stroke-dasharray="0 .64" stroke-miterlimit="10" stroke-width=".25"/><line x1="83" y1="54.98" x2="83" y2="54.72" fill="none" stroke="gray" stroke-miterlimit="10" stroke-width=".26"/><line x1="83" y1="54.22" x2="83" y2="37.49" fill="none" stroke="gray" stroke-dasharray="0 0 .5 .5" stroke-miterlimit="10" stroke-width=".26"/><line x1="83" y1="37.24" x2="83" y2="36.98" fill="none" stroke="gray" stroke-miterlimit="10" stroke-width=".26"/><line x1="283" y1="46.51" x2="283" y2="46.25" fill="none" stroke="gray" stroke-miterlimit="10" stroke-width=".26"/><line x1="283" y1="45.72" x2="283" y2="37.5" fill="none" stroke="gray" stroke-dasharray="0 0 .53 .53" stroke-miterlimit="10" stroke-width=".26"/><line x1="283" y1="37.24" x2="283" y2="36.98" fill="none" stroke="gray" stroke-miterlimit="10" stroke-width=".26"/><line x1="6.07" y1="141.74" x2="386.21" y2="141.74" fill="none" stroke="#231f20" stroke-miterlimit="10" stroke-width=".5"/><polygon points="6.91 142.85 6.44 141.74 6.91 140.63 4.28 141.74 6.91 142.85" fill="#231f20" stroke-width="0"/><polygon points="385.37 142.85 385.84 141.74 385.37 140.63 388 141.74 385.37 142.85" fill="#231f20" stroke-width="0"/><path d="m10.51,149.38l-1.11-2.16h-.11s-.74,0-.74,0v2.16h-.41v-4.79h.99c1.08,0,1.62.43,1.62,1.3,0,.33-.08.6-.25.81-.17.21-.4.36-.71.44l1.18,2.24h-.46Zm-.48-2.74c.19-.16.29-.42.29-.76s-.09-.57-.28-.73-.5-.24-.93-.24h-.57v1.97h.63c.38,0,.67-.08.86-.24Z" fill="gray" stroke-width="0"/><path d="m13.9,149.01c.04.08.11.14.21.18l-.09.27c-.15-.04-.27-.1-.36-.19-.08-.09-.14-.23-.17-.4-.24.4-.58.59-1.01.59-.32,0-.57-.1-.75-.3-.18-.2-.28-.46-.28-.79,0-.38.12-.68.37-.88.25-.2.6-.3,1.04-.3h.58v-.39c0-.28-.06-.49-.17-.62s-.3-.2-.56-.2-.57.07-.91.21l-.11-.29c.39-.16.74-.24,1.06-.24.37,0,.64.1.82.29.18.19.27.47.27.83v1.87c0,.17.02.29.06.37Zm-.46-.53v-1h-.53c-.7,0-1.05.29-1.05.88,0,.26.06.45.18.59.12.13.29.2.5.2.4,0,.7-.22.9-.67Z" fill="gray" stroke-width="0"/><path d="m17.31,145.93c.16.19.24.46.24.8v2.65h-.39v-2.6c0-.28-.05-.49-.15-.62-.1-.13-.25-.2-.45-.2s-.38.07-.55.2c-.16.14-.32.33-.47.57v2.64h-.39v-3.66h.34l.04.64c.29-.48.66-.71,1.1-.71.29,0,.52.1.68.29Z" fill="gray" stroke-width="0"/><path d="m21.3,145.79c-.11.04-.23.06-.37.08-.14.01-.32.02-.54.03.38.2.57.53.57,1,0,.37-.11.66-.32.88s-.51.33-.88.33c-.15,0-.3-.03-.43-.08-.17.12-.25.26-.25.43,0,.26.18.39.55.39h.48c.34,0,.61.09.81.26.2.17.29.39.29.67,0,.33-.12.58-.36.77-.24.19-.6.28-1.08.28s-.84-.09-1.06-.26c-.21-.17-.32-.44-.32-.79h.36c0,.26.08.45.23.56.15.11.42.17.8.17.7,0,1.04-.23,1.04-.7,0-.2-.07-.35-.2-.46s-.33-.16-.58-.16h-.43c-.29,0-.51-.06-.66-.17-.15-.12-.22-.27-.22-.46,0-.24.12-.44.37-.62-.19-.11-.33-.25-.42-.42-.09-.17-.14-.38-.14-.62,0-.37.11-.67.34-.9.22-.23.52-.34.89-.34.4,0,.69-.01.87-.05s.37-.09.56-.18l.12.37Zm-2.18.41c-.14.16-.21.39-.21.69s.07.52.22.68c.15.17.35.25.6.25.27,0,.47-.08.61-.24.14-.16.21-.39.21-.69s-.07-.52-.21-.69c-.14-.17-.34-.25-.61-.25s-.48.08-.62.25Z" fill="gray" stroke-width="0"/><path d="m24.28,147.71h-2.21c.02.49.12.85.3,1.07.18.23.42.34.72.34.17,0,.33-.03.46-.08.13-.06.27-.14.42-.27l.2.25c-.16.14-.33.25-.51.33-.17.08-.37.11-.58.11-.44,0-.78-.16-1.04-.49-.25-.33-.38-.79-.38-1.39s.12-1.08.36-1.42c.24-.34.57-.51.98-.51s.73.15.95.46c.22.31.33.74.33,1.31,0,.1,0,.2-.01.29Zm-.37-.42c0-.42-.07-.75-.22-.98s-.37-.34-.67-.34c-.27,0-.49.12-.66.34s-.26.59-.28,1.08h1.83v-.11Z" fill="gray" stroke-width="0"/><path d="m29.24,146.14c.25.33.37.8.37,1.41s-.13,1.07-.38,1.41c-.25.34-.6.51-1.04.51s-.78-.17-1.03-.5c-.25-.33-.37-.8-.37-1.4s.12-1.07.37-1.41.59-.5,1.03-.5.79.16,1.04.49Zm-1.77.23c-.17.26-.26.66-.26,1.19s.09.92.26,1.18c.17.26.41.39.73.39s.56-.13.74-.39c.17-.26.26-.66.26-1.2s-.08-.92-.25-1.18-.41-.38-.74-.38-.56.13-.73.39Z" fill="gray" stroke-width="0"/><path d="m31.24,144.65c-.09.09-.14.24-.14.44v.63h.87l-.05.32h-.82v3.34h-.39v-3.34h-.57v-.32h.57v-.64c0-.28.08-.49.25-.65.17-.16.39-.24.68-.24.27,0,.52.07.77.2l-.13.29c-.21-.1-.41-.15-.61-.15s-.33.05-.43.14Z" fill="gray" stroke-width="0"/><path d="m36.73,146.13c.2.32.3.79.3,1.41s-.11,1.08-.33,1.42c-.22.34-.53.51-.93.51-.2,0-.37-.04-.53-.14-.16-.09-.29-.21-.4-.36v1.8l-.39.06v-5.1h.34l.03.53c.27-.4.61-.6,1.01-.6s.69.16.89.48Zm-.12,1.41c0-.53-.07-.92-.21-1.18-.14-.25-.35-.38-.63-.38-.19,0-.36.06-.51.17-.15.11-.29.26-.41.46v1.98c.23.36.52.55.87.55.6,0,.9-.53.9-1.59Z" fill="gray" stroke-width="0"/><path d="m40.29,146.14c.25.33.37.8.37,1.41s-.13,1.07-.38,1.41c-.25.34-.6.51-1.04.51s-.78-.17-1.03-.5c-.25-.33-.37-.8-.37-1.4s.12-1.07.37-1.41.59-.5,1.03-.5.79.16,1.04.49Zm-1.77.23c-.17.26-.26.66-.26,1.19s.09.92.26,1.18c.17.26.41.39.73.39s.56-.13.74-.39c.17-.26.26-.66.26-1.2s-.08-.92-.25-1.18-.41-.38-.74-.38-.56.13-.73.39Z" fill="gray" stroke-width="0"/><path d="m43.11,145.75c.17.07.33.17.49.3l-.18.25c-.15-.12-.29-.2-.42-.25s-.28-.08-.44-.08c-.22,0-.4.06-.53.17-.13.11-.2.27-.2.46,0,.17.06.31.18.41.12.1.33.2.63.3.38.12.65.26.81.42.16.16.25.39.25.68,0,.32-.11.58-.34.77s-.52.29-.86.29c-.25,0-.47-.04-.66-.12-.19-.08-.37-.2-.53-.35l.22-.24c.15.13.3.22.45.28.15.06.33.09.52.09.24,0,.43-.06.58-.19.15-.13.22-.3.22-.53,0-.15-.02-.27-.07-.36s-.13-.17-.26-.24c-.12-.07-.3-.14-.54-.22-.36-.11-.61-.24-.76-.4s-.23-.35-.23-.59c0-.18.05-.35.15-.49.1-.14.23-.26.4-.34.17-.08.36-.13.56-.13s.4.03.57.1Z" fill="gray" stroke-width="0"/><path d="m45.96,145.75c.17.07.33.17.49.3l-.18.25c-.15-.12-.29-.2-.42-.25s-.28-.08-.44-.08c-.22,0-.4.06-.53.17-.13.11-.2.27-.2.46,0,.17.06.31.18.41.12.1.33.2.63.3.38.12.65.26.81.42.16.16.25.39.25.68,0,.32-.11.58-.34.77s-.52.29-.86.29c-.25,0-.47-.04-.66-.12-.19-.08-.37-.2-.53-.35l.22-.24c.15.13.3.22.45.28.15.06.33.09.52.09.24,0,.43-.06.58-.19.15-.13.22-.3.22-.53,0-.15-.02-.27-.07-.36s-.13-.17-.26-.24c-.12-.07-.3-.14-.54-.22-.36-.11-.61-.24-.76-.4s-.23-.35-.23-.59c0-.18.05-.35.15-.49.1-.14.23-.26.4-.34.17-.08.36-.13.56-.13s.4.03.57.1Z" fill="gray" stroke-width="0"/><path d="m47.91,144.2c.05.06.08.12.08.2,0,.08-.03.15-.08.21s-.12.08-.21.08-.15-.03-.21-.08-.08-.12-.08-.21c0-.08.03-.15.08-.2s.12-.08.21-.08.15.03.21.08Zm-.01,1.52v3.66h-.39v-3.66h.39Z" fill="gray" stroke-width="0"/><path d="m51.48,146.13c.21.32.32.79.32,1.41s-.11,1.08-.33,1.42c-.22.34-.53.51-.93.51-.2,0-.37-.05-.53-.15-.16-.1-.3-.23-.41-.39l-.04.46h-.34v-5.15l.39-.05v2.05c.26-.39.59-.59.99-.59s.68.16.89.48Zm-.34,2.61c.16-.26.23-.66.23-1.2s-.07-.94-.22-1.19c-.14-.25-.36-.38-.64-.38-.2,0-.37.06-.51.17-.14.11-.28.27-.41.46v1.95c.24.39.53.58.87.58.29,0,.51-.13.67-.39Z" fill="gray" stroke-width="0"/><path d="m52.99,149.29c-.11-.11-.16-.27-.16-.48v-4.58l.39-.05v4.62c0,.21.09.32.27.32.07,0,.15-.02.22-.05l.1.29c-.11.07-.24.1-.38.1-.18,0-.33-.06-.43-.17Z" fill="gray" stroke-width="0"/><path d="m56.98,147.71h-2.21c.02.49.12.85.3,1.07.18.23.42.34.72.34.17,0,.33-.03.46-.08.13-.06.27-.14.42-.27l.2.25c-.16.14-.33.25-.51.33-.17.08-.37.11-.58.11-.44,0-.78-.16-1.04-.49-.25-.33-.38-.79-.38-1.39s.12-1.08.36-1.42c.24-.34.57-.51.98-.51s.73.15.95.46c.22.31.33.74.33,1.31,0,.1,0,.2-.01.29Zm-.37-.42c0-.42-.07-.75-.22-.98s-.37-.34-.67-.34c-.27,0-.49.12-.66.34s-.26.59-.28,1.08h1.83v-.11Z" fill="gray" stroke-width="0"/><path d="m61.41,145.73c.15.06.29.15.43.28l-.2.25c-.11-.1-.22-.17-.34-.22-.12-.05-.25-.07-.39-.07-.31,0-.55.13-.73.4s-.27.66-.27,1.19.09.92.27,1.17.42.38.74.38c.14,0,.28-.02.39-.07.12-.05.24-.12.36-.22l.2.25c-.28.26-.59.39-.95.39-.44,0-.78-.16-1.04-.49s-.38-.79-.38-1.4.13-1.08.38-1.42c.25-.34.6-.51,1.03-.51.18,0,.35.03.5.09Z" fill="gray" stroke-width="0"/><path d="m64.77,146.14c.25.33.37.8.37,1.41s-.13,1.07-.38,1.41c-.25.34-.6.51-1.04.51s-.78-.17-1.03-.5c-.25-.33-.37-.8-.37-1.4s.12-1.07.37-1.41.59-.5,1.03-.5.79.16,1.04.49Zm-1.77.23c-.17.26-.26.66-.26,1.19s.09.92.26,1.18c.17.26.41.39.73.39s.56-.13.74-.39c.17-.26.26-.66.26-1.2s-.08-.92-.25-1.18-.41-.38-.74-.38-.56.13-.73.39Z" fill="gray" stroke-width="0"/><path d="m68.35,145.93c.16.19.24.46.24.8v2.65h-.39v-2.6c0-.28-.05-.49-.15-.62-.1-.13-.25-.2-.45-.2s-.38.07-.55.2c-.16.14-.32.33-.47.57v2.64h-.39v-3.66h.34l.04.64c.29-.48.66-.71,1.1-.71.29,0,.52.1.68.29Z" fill="gray" stroke-width="0"/><path d="m71.4,149.23c-.21.15-.45.23-.7.23s-.46-.08-.6-.23c-.14-.15-.22-.37-.22-.65v-2.53h-.55v-.32h.55v-.88l.39-.05v.92h.85l-.05.32h-.8v2.52c0,.37.16.56.47.56.16,0,.32-.05.5-.15l.16.26Z" fill="gray" stroke-width="0"/><path d="m74.31,147.71h-2.21c.02.49.12.85.3,1.07.18.23.42.34.72.34.17,0,.33-.03.46-.08.13-.06.27-.14.42-.27l.2.25c-.16.14-.33.25-.51.33-.17.08-.37.11-.58.11-.44,0-.78-.16-1.04-.49-.25-.33-.38-.79-.38-1.39s.12-1.08.36-1.42c.24-.34.57-.51.98-.51s.73.15.95.46c.22.31.33.74.33,1.31,0,.1,0,.2-.01.29Zm-.37-.42c0-.42-.07-.75-.22-.98s-.37-.34-.67-.34c-.27,0-.49.12-.66.34s-.26.59-.28,1.08h1.83v-.11Z" fill="gray" stroke-width="0"/><path d="m77.51,145.93c.16.19.24.46.24.8v2.65h-.39v-2.6c0-.28-.05-.49-.15-.62-.1-.13-.25-.2-.45-.2s-.38.07-.55.2c-.16.14-.32.33-.47.57v2.64h-.39v-3.66h.34l.04.64c.29-.48.66-.71,1.1-.71.29,0,.52.1.68.29Z" fill="gray" stroke-width="0"/><path d="m80.56,149.23c-.21.15-.45.23-.7.23s-.46-.08-.6-.23c-.14-.15-.22-.37-.22-.65v-2.53h-.55v-.32h.55v-.88l.39-.05v.92h.85l-.05.32h-.8v2.52c0,.37.16.56.47.56.16,0,.32-.05.5-.15l.16.26Z" fill="gray" stroke-width="0"/><path d="m81.6,144.2c.05.06.08.12.08.2,0,.08-.03.15-.08.21s-.12.08-.21.08-.15-.03-.21-.08-.08-.12-.08-.21c0-.08.03-.15.08-.2s.12-.08.21-.08.15.03.21.08Zm-.01,1.52v3.66h-.39v-3.66h.39Z" fill="gray" stroke-width="0"/><path d="m85.09,146.14c.25.33.37.8.37,1.41s-.13,1.07-.38,1.41c-.25.34-.6.51-1.04.51s-.78-.17-1.03-.5c-.25-.33-.37-.8-.37-1.4s.12-1.07.37-1.41.59-.5,1.03-.5.79.16,1.04.49Zm-1.77.23c-.17.26-.26.66-.26,1.19s.09.92.26,1.18c.17.26.41.39.73.39s.56-.13.74-.39c.17-.26.26-.66.26-1.2s-.08-.92-.25-1.18-.41-.38-.74-.38-.56.13-.73.39Z" fill="gray" stroke-width="0"/><path d="m88.86,149.38h-.34l-.03-.63c-.26.47-.61.71-1.06.71-.29,0-.53-.09-.69-.28-.17-.19-.25-.45-.25-.78v-2.68h.39v2.65c0,.51.21.76.63.76.21,0,.39-.07.54-.2.15-.13.29-.31.42-.55v-2.66h.39v3.66Z" fill="gray" stroke-width="0"/><path d="m91.57,145.75c.17.07.33.17.49.3l-.18.25c-.15-.12-.29-.2-.42-.25s-.28-.08-.44-.08c-.22,0-.4.06-.53.17-.13.11-.2.27-.2.46,0,.17.06.31.18.41.12.1.33.2.63.3.38.12.65.26.81.42.16.16.25.39.25.68,0,.32-.11.58-.34.77s-.52.29-.86.29c-.25,0-.47-.04-.66-.12-.19-.08-.37-.2-.53-.35l.22-.24c.15.13.3.22.45.28.15.06.33.09.52.09.24,0,.43-.06.58-.19.15-.13.22-.3.22-.53,0-.15-.02-.27-.07-.36s-.13-.17-.26-.24c-.12-.07-.3-.14-.54-.22-.36-.11-.61-.24-.76-.4s-.23-.35-.23-.59c0-.18.05-.35.15-.49.1-.14.23-.26.4-.34.17-.08.36-.13.56-.13s.4.03.57.1Z" fill="gray" stroke-width="0"/><path d="m95.28,145.93c.16.19.24.46.24.8v2.65h-.39v-2.6c0-.28-.05-.49-.15-.62-.1-.13-.25-.2-.45-.2s-.38.07-.55.2c-.16.14-.32.33-.47.57v2.64h-.39v-3.66h.34l.04.64c.29-.48.66-.71,1.1-.71.29,0,.52.1.68.29Z" fill="gray" stroke-width="0"/><path d="m99.15,147.71h-2.21c.02.49.12.85.3,1.07.18.23.42.34.72.34.17,0,.33-.03.46-.08.13-.06.27-.14.42-.27l.2.25c-.16.14-.33.25-.51.33-.17.08-.37.11-.58.11-.44,0-.78-.16-1.04-.49-.25-.33-.38-.79-.38-1.39s.12-1.08.36-1.42c.24-.34.57-.51.98-.51s.73.15.95.46c.22.31.33.74.33,1.31,0,.1,0,.2-.01.29Zm-.37-.42c0-.42-.07-.75-.22-.98s-.37-.34-.67-.34c-.27,0-.49.12-.66.34s-.26.59-.28,1.08h1.83v-.11Z" fill="gray" stroke-width="0"/><path d="m101.58,145.75c.17.07.33.17.49.3l-.18.25c-.15-.12-.29-.2-.42-.25s-.28-.08-.44-.08c-.22,0-.4.06-.53.17-.13.11-.2.27-.2.46,0,.17.06.31.18.41.12.1.33.2.63.3.38.12.65.26.81.42.16.16.25.39.25.68,0,.32-.11.58-.34.77s-.52.29-.86.29c-.25,0-.47-.04-.66-.12-.19-.08-.37-.2-.53-.35l.22-.24c.15.13.3.22.45.28.15.06.33.09.52.09.24,0,.43-.06.58-.19.15-.13.22-.3.22-.53,0-.15-.02-.27-.07-.36s-.13-.17-.26-.24c-.12-.07-.3-.14-.54-.22-.36-.11-.61-.24-.76-.4s-.23-.35-.23-.59c0-.18.05-.35.15-.49.1-.14.23-.26.4-.34.17-.08.36-.13.56-.13s.4.03.57.1Z" fill="gray" stroke-width="0"/><path d="m104.43,145.75c.17.07.33.17.49.3l-.18.25c-.15-.12-.29-.2-.42-.25s-.28-.08-.44-.08c-.22,0-.4.06-.53.17-.13.11-.2.27-.2.46,0,.17.06.31.18.41.12.1.33.2.63.3.38.12.65.26.81.42.16.16.25.39.25.68,0,.32-.11.58-.34.77s-.52.29-.86.29c-.25,0-.47-.04-.66-.12-.19-.08-.37-.2-.53-.35l.22-.24c.15.13.3.22.45.28.15.06.33.09.52.09.24,0,.43-.06.58-.19.15-.13.22-.3.22-.53,0-.15-.02-.27-.07-.36s-.13-.17-.26-.24c-.12-.07-.3-.14-.54-.22-.36-.11-.61-.24-.76-.4s-.23-.35-.23-.59c0-.18.05-.35.15-.49.1-.14.23-.26.4-.34.17-.08.36-.13.56-.13s.4.03.57.1Z" fill="gray" stroke-width="0"/><path d="m109.9,146.14c.25.33.37.8.37,1.41s-.13,1.07-.38,1.41c-.25.34-.6.51-1.04.51s-.78-.17-1.03-.5c-.25-.33-.37-.8-.37-1.4s.12-1.07.37-1.41.59-.5,1.03-.5.79.16,1.04.49Zm-1.77.23c-.17.26-.26.66-.26,1.19s.09.92.26,1.18c.17.26.41.39.73.39s.56-.13.74-.39c.17-.26.26-.66.26-1.2s-.08-.92-.25-1.18-.41-.38-.74-.38-.56.13-.73.39Z" fill="gray" stroke-width="0"/><path d="m111.9,144.65c-.09.09-.14.24-.14.44v.63h.87l-.05.32h-.82v3.34h-.39v-3.34h-.57v-.32h.57v-.64c0-.28.08-.49.25-.65.17-.16.39-.24.68-.24.27,0,.52.07.77.2l-.13.29c-.21-.1-.41-.15-.61-.15s-.33.05-.43.14Z" fill="gray" stroke-width="0"/><path d="m115.54,144.59v4.79h-.41v-4.79h.41Z" fill="gray" stroke-width="0"/><path d="m119.79,149.38h-.53l-2-4.34c.04.43.06.97.06,1.63v2.71h-.39v-4.79h.53l2,4.35c-.04-.56-.06-1.03-.06-1.41v-2.93h.38v4.79Z" fill="gray" stroke-width="0"/><path d="m123.34,144.63c.18.08.37.2.55.36l-.24.25c-.15-.13-.3-.23-.45-.28-.14-.06-.31-.09-.5-.09-.25,0-.48.07-.69.21s-.38.36-.51.68c-.13.32-.2.72-.2,1.22,0,1.43.46,2.14,1.37,2.14.32,0,.62-.08.89-.25v-1.72h-.83l-.05-.34h1.27v2.27c-.4.26-.83.39-1.28.39-.56,0-1.01-.21-1.32-.62-.32-.42-.48-1.04-.48-1.87,0-.54.08-1,.25-1.36.17-.37.39-.64.67-.82s.58-.27.9-.27c.24,0,.46.04.64.12Z" fill="gray" stroke-width="0"/><path d="m127.86,145.14c.31.42.47,1.04.47,1.85s-.16,1.41-.47,1.83c-.32.42-.75.64-1.29.64-.35,0-.67-.09-.93-.28s-.47-.46-.62-.83c-.15-.37-.22-.82-.22-1.35s.07-.98.22-1.36c.15-.37.35-.65.62-.84.27-.19.58-.28.93-.28.55,0,.98.21,1.29.63Zm-2.28.25c-.24.35-.36.89-.36,1.61s.12,1.25.36,1.59.57.52.98.52.76-.17.99-.52c.23-.34.35-.88.35-1.6s-.12-1.26-.35-1.61c-.24-.35-.57-.52-.99-.52s-.75.17-.99.52Z" fill="gray" stroke-width="0"/><path d="m133.43,146.13c.2.32.3.79.3,1.41s-.11,1.08-.33,1.42c-.22.34-.53.51-.93.51-.2,0-.37-.04-.53-.14-.16-.09-.29-.21-.4-.36v1.8l-.39.06v-5.1h.34l.03.53c.27-.4.61-.6,1.01-.6s.69.16.89.48Zm-.12,1.41c0-.53-.07-.92-.21-1.18-.14-.25-.35-.38-.63-.38-.19,0-.36.06-.51.17-.15.11-.29.26-.41.46v1.98c.23.36.52.55.87.55.6,0,.9-.53.9-1.59Z" fill="gray" stroke-width="0"/><path d="m136.44,145.69l-.08.37c-.08-.03-.18-.04-.28-.04-.22,0-.4.09-.54.27-.14.18-.25.46-.34.84v2.26h-.39v-3.66h.34l.03.78c.09-.29.22-.5.37-.65.15-.14.35-.21.57-.21.1,0,.21.01.32.04Z" fill="gray" stroke-width="0"/><path d="m139.16,146.14c.25.33.37.8.37,1.41s-.13,1.07-.38,1.41c-.25.34-.6.51-1.04.51s-.78-.17-1.03-.5c-.25-.33-.37-.8-.37-1.4s.12-1.07.37-1.41.59-.5,1.03-.5.79.16,1.04.49Zm-1.77.23c-.17.26-.26.66-.26,1.19s.09.92.26,1.18c.17.26.41.39.73.39s.56-.13.74-.39c.17-.26.26-.66.26-1.2s-.08-.92-.25-1.18-.41-.38-.74-.38-.56.13-.73.39Z" fill="gray" stroke-width="0"/><path d="m143.05,145.79c-.11.04-.23.06-.37.08-.14.01-.32.02-.54.03.38.2.57.53.57,1,0,.37-.11.66-.32.88s-.51.33-.88.33c-.15,0-.3-.03-.43-.08-.17.12-.25.26-.25.43,0,.26.18.39.55.39h.48c.34,0,.61.09.81.26.2.17.29.39.29.67,0,.33-.12.58-.36.77-.24.19-.6.28-1.08.28s-.84-.09-1.06-.26c-.21-.17-.32-.44-.32-.79h.36c0,.26.08.45.23.56.15.11.42.17.8.17.7,0,1.04-.23,1.04-.7,0-.2-.07-.35-.2-.46s-.33-.16-.58-.16h-.43c-.29,0-.51-.06-.66-.17-.15-.12-.22-.27-.22-.46,0-.24.12-.44.37-.62-.19-.11-.33-.25-.42-.42-.09-.17-.14-.38-.14-.62,0-.37.11-.67.34-.9.22-.23.52-.34.89-.34.4,0,.69-.01.87-.05s.37-.09.56-.18l.12.37Zm-2.18.41c-.14.16-.21.39-.21.69s.07.52.22.68c.15.17.35.25.6.25.27,0,.47-.08.61-.24.14-.16.21-.39.21-.69s-.07-.52-.21-.69c-.14-.17-.34-.25-.61-.25s-.48.08-.62.25Z" fill="gray" stroke-width="0"/><path d="m145.4,145.69l-.08.37c-.08-.03-.18-.04-.28-.04-.22,0-.4.09-.54.27-.14.18-.25.46-.34.84v2.26h-.39v-3.66h.34l.03.78c.09-.29.22-.5.37-.65.15-.14.35-.21.57-.21.1,0,.21.01.32.04Z" fill="gray" stroke-width="0"/><path d="m148.04,149.01c.04.08.11.14.21.18l-.09.27c-.15-.04-.27-.1-.36-.19-.08-.09-.14-.23-.17-.4-.24.4-.58.59-1.01.59-.32,0-.57-.1-.75-.3-.18-.2-.28-.46-.28-.79,0-.38.12-.68.37-.88.25-.2.6-.3,1.04-.3h.58v-.39c0-.28-.06-.49-.17-.62s-.3-.2-.56-.2-.57.07-.91.21l-.11-.29c.39-.16.74-.24,1.06-.24.37,0,.64.1.82.29.18.19.27.47.27.83v1.87c0,.17.02.29.06.37Zm-.46-.53v-1h-.53c-.7,0-1.05.29-1.05.88,0,.26.06.45.18.59.12.13.29.2.5.2.4,0,.7-.22.9-.67Z" fill="gray" stroke-width="0"/><path d="m153.14,145.94c.15.2.23.46.23.79v2.65h-.38v-2.6c0-.28-.05-.48-.14-.62-.1-.13-.23-.2-.4-.2-.18,0-.35.07-.49.2-.15.13-.29.32-.42.56v2.66h-.39v-2.6c0-.28-.05-.48-.14-.62-.1-.13-.23-.2-.4-.2-.18,0-.35.07-.49.2-.15.13-.29.32-.42.56v2.66h-.39v-3.66h.34l.04.61c.28-.46.62-.69,1.01-.69.21,0,.39.06.53.19s.24.3.29.53c.29-.48.63-.71,1.03-.71.27,0,.48.1.63.29Z" fill="gray" stroke-width="0"/><path d="m158.52,145.94c.15.2.23.46.23.79v2.65h-.38v-2.6c0-.28-.05-.48-.14-.62-.1-.13-.23-.2-.4-.2-.18,0-.35.07-.49.2-.15.13-.29.32-.42.56v2.66h-.39v-2.6c0-.28-.05-.48-.14-.62-.1-.13-.23-.2-.4-.2-.18,0-.35.07-.49.2-.15.13-.29.32-.42.56v2.66h-.39v-3.66h.34l.04.61c.28-.46.62-.69,1.01-.69.21,0,.39.06.53.19s.24.3.29.53c.29-.48.63-.71,1.03-.71.27,0,.48.1.63.29Z" fill="gray" stroke-width="0"/><path d="m160.44,144.2c.05.06.08.12.08.2,0,.08-.03.15-.08.21s-.12.08-.21.08-.15-.03-.21-.08-.08-.12-.08-.21c0-.08.03-.15.08-.2s.12-.08.21-.08.15.03.21.08Zm-.01,1.52v3.66h-.39v-3.66h.39Z" fill="gray" stroke-width="0"/><path d="m163.9,145.93c.16.19.24.46.24.8v2.65h-.39v-2.6c0-.28-.05-.49-.15-.62-.1-.13-.25-.2-.45-.2s-.38.07-.55.2c-.16.14-.32.33-.47.57v2.64h-.39v-3.66h.34l.04.64c.29-.48.66-.71,1.1-.71.29,0,.52.1.68.29Z" fill="gray" stroke-width="0"/><path d="m167.9,145.79c-.11.04-.23.06-.37.08-.14.01-.32.02-.54.03.38.2.57.53.57,1,0,.37-.11.66-.32.88s-.51.33-.88.33c-.15,0-.3-.03-.43-.08-.17.12-.25.26-.25.43,0,.26.18.39.55.39h.48c.34,0,.61.09.81.26.2.17.29.39.29.67,0,.33-.12.58-.36.77-.24.19-.6.28-1.08.28s-.84-.09-1.06-.26c-.21-.17-.32-.44-.32-.79h.36c0,.26.08.45.23.56.15.11.42.17.8.17.7,0,1.04-.23,1.04-.7,0-.2-.07-.35-.2-.46s-.33-.16-.58-.16h-.43c-.29,0-.51-.06-.66-.17-.15-.12-.22-.27-.22-.46,0-.24.12-.44.37-.62-.19-.11-.33-.25-.42-.42-.09-.17-.14-.38-.14-.62,0-.37.11-.67.34-.9.22-.23.52-.34.89-.34.4,0,.69-.01.87-.05s.37-.09.56-.18l.12.37Zm-2.18.41c-.14.16-.21.39-.21.69s.07.52.22.68c.15.17.35.25.6.25.27,0,.47-.08.61-.24.14-.16.21-.39.21-.69s-.07-.52-.21-.69c-.14-.17-.34-.25-.61-.25s-.48.08-.62.25Z" fill="gray" stroke-width="0"/><path d="m34.48,75.27c.32.13.59.37.79.72.2.35.3.85.3,1.49,0,.91-.2,1.54-.6,1.9-.4.36-.91.54-1.54.54h-1.23v-4.84h1.13c.44,0,.82.06,1.14.19Zm-1.36.49v3.48h.39c.36,0,.64-.13.84-.38s.3-.71.3-1.39c0-.47-.05-.83-.15-1.08-.1-.25-.23-.42-.4-.51-.17-.09-.37-.13-.61-.13h-.36Z" fill="#fff" stroke-width="0"/><path d="m39.11,78.34h-2.09c.03.37.11.64.24.79.13.15.31.23.55.23.15,0,.29-.03.42-.08.13-.05.27-.13.42-.24l.36.5c-.37.32-.79.48-1.27.48-.52,0-.92-.17-1.2-.51-.28-.34-.42-.81-.42-1.42s.13-1.08.4-1.44c.27-.36.64-.54,1.12-.54s.83.16,1.09.48c.26.32.39.78.39,1.39,0,.04,0,.16-.02.36Zm-.84-.61c0-.34-.05-.59-.15-.75-.1-.17-.25-.25-.47-.25-.2,0-.35.08-.45.24-.11.16-.17.43-.19.8h1.25v-.04Z" fill="#fff" stroke-width="0"/><path d="m42.24,79.67c0,.34-.05.61-.15.83-.1.22-.24.4-.42.54-.18.14-.41.27-.69.4l-.29-.64c.16-.08.29-.17.38-.25.09-.08.16-.19.21-.32.05-.13.07-.31.07-.52v-3.49h.88v3.46Zm-.05-5.17c.1.1.15.23.15.38s-.05.28-.15.38-.23.15-.39.15-.29-.05-.39-.15-.15-.23-.15-.38.05-.28.15-.38.23-.15.39-.15.29.05.39.15Z" fill="#fff" stroke-width="0"/><path d="m45.89,79.92h-.76l-.05-.49c-.13.2-.27.35-.43.45-.16.1-.35.15-.57.15-.3,0-.53-.1-.7-.29-.17-.2-.25-.46-.25-.79v-2.72h.88v2.65c0,.17.03.3.09.38.06.08.15.12.28.12.24,0,.46-.17.64-.5v-2.64h.88v3.7Z" fill="#fff" stroke-width="0"/><path d="m48.86,76.17l-.15.85c-.1-.03-.2-.04-.29-.04-.2,0-.35.08-.47.23-.11.15-.2.39-.26.7v2.02h-.88v-3.7h.76l.07.69c.09-.26.21-.45.36-.58s.32-.2.52-.2c.1,0,.21.02.33.05Z" fill="#fff" stroke-width="0"/><path d="m51.92,78.34h-2.09c.03.37.11.64.24.79.13.15.31.23.55.23.15,0,.29-.03.42-.08.13-.05.27-.13.42-.24l.36.5c-.37.32-.79.48-1.27.48-.52,0-.92-.17-1.2-.51-.28-.34-.42-.81-.42-1.42s.13-1.08.4-1.44c.27-.36.64-.54,1.12-.54s.83.16,1.09.48c.26.32.39.78.39,1.39,0,.04,0,.16-.02.36Zm-.84-.61c0-.34-.05-.59-.15-.75-.1-.17-.25-.25-.47-.25-.2,0-.35.08-.45.24-.11.16-.17.43-.19.8h1.25v-.04Z" fill="#fff" stroke-width="0"/><path d="m56.18,76.22c.18.07.35.18.5.32l-.38.51c-.21-.17-.43-.25-.66-.25s-.42.1-.54.3c-.12.2-.19.53-.19.98s.06.77.19.95c.12.19.3.28.54.28.12,0,.22-.02.32-.06.1-.04.21-.1.33-.19l.39.53c-.32.29-.68.43-1.08.43-.5,0-.9-.17-1.18-.5-.29-.33-.43-.81-.43-1.42,0-.4.07-.75.2-1.05.13-.3.32-.53.56-.69s.52-.24.84-.24c.22,0,.42.04.59.11Z" fill="#fff" stroke-width="0"/><path d="m58.05,74.5c.1.1.15.23.15.38s-.05.28-.15.38-.23.15-.39.15-.29-.05-.39-.15c-.1-.1-.15-.23-.15-.38s.05-.28.15-.38c.1-.1.23-.15.39-.15s.29.05.39.15Zm.05,1.71v3.7h-.88v-3.7h.88Z" fill="#fff" stroke-width="0"/><path d="m61.77,76.22l-1.07,3.7h-1.04l-1.09-3.7h.92l.7,3,.71-3h.88Z" fill="#fff" stroke-width="0"/><path d="m63.07,74.5c.1.1.15.23.15.38s-.05.28-.15.38-.23.15-.39.15-.29-.05-.39-.15c-.1-.1-.15-.23-.15-.38s.05-.28.15-.38c.1-.1.23-.15.39-.15s.29.05.39.15Zm.05,1.71v3.7h-.88v-3.7h.88Z" fill="#fff" stroke-width="0"/><path d="m64.23,79.79c-.15-.16-.23-.38-.23-.67v-4.39l.88-.09v4.45c0,.15.06.22.19.22.06,0,.12,0,.17-.03l.17.6c-.15.09-.34.13-.55.13-.27,0-.48-.08-.63-.24Z" fill="#fff" stroke-width="0"/><path d="m33.71,84.55l-.34.5c-.28-.2-.55-.29-.82-.29-.15,0-.27.04-.36.1-.08.07-.13.17-.13.29,0,.09.02.16.06.22.04.06.11.11.21.17s.25.11.44.18c.35.12.62.26.79.43.17.17.26.41.26.71,0,.36-.14.65-.41.86-.27.21-.62.31-1.03.31-.28,0-.53-.04-.76-.14-.23-.09-.43-.22-.59-.38l.43-.48c.29.23.59.35.89.35.18,0,.32-.04.42-.12s.15-.19.15-.34c0-.11-.02-.19-.06-.26-.04-.07-.11-.13-.21-.18-.1-.06-.26-.12-.47-.18-.34-.12-.6-.26-.75-.44-.16-.18-.23-.4-.23-.66,0-.21.05-.39.16-.56.11-.17.26-.3.46-.39.2-.09.43-.14.69-.14.46,0,.86.15,1.2.44Z" fill="#fff" stroke-width="0"/><path d="m37.01,84.61c.28.34.42.82.42,1.45s-.14,1.08-.42,1.44c-.28.35-.67.52-1.17.52s-.89-.17-1.17-.51c-.28-.34-.42-.82-.42-1.45s.14-1.09.42-1.43c.28-.35.67-.52,1.17-.52s.89.17,1.17.5Zm-1.68.47c-.11.2-.17.53-.17.98s.06.79.17.99c.11.2.28.3.51.3s.4-.1.51-.31.17-.53.17-.99-.06-.79-.17-.99c-.11-.2-.28-.3-.51-.3s-.4.1-.51.3Z" fill="#fff" stroke-width="0"/><path d="m40.16,84.22c.18.07.35.18.5.32l-.38.51c-.21-.17-.43-.25-.66-.25s-.42.1-.54.3c-.12.2-.19.53-.19.98s.06.77.19.95c.12.19.3.28.54.28.12,0,.22-.02.32-.06.1-.04.21-.1.33-.19l.39.53c-.32.29-.68.43-1.08.43-.5,0-.9-.17-1.18-.5-.29-.33-.43-.81-.43-1.42,0-.4.07-.75.2-1.05.13-.3.32-.53.56-.69s.52-.24.84-.24c.22,0,.42.04.59.11Z" fill="#fff" stroke-width="0"/><path d="m42.03,82.5c.1.1.15.23.15.38s-.05.28-.15.38-.23.15-.39.15-.29-.05-.39-.15c-.1-.1-.15-.23-.15-.38s.05-.28.15-.38c.1-.1.23-.15.39-.15s.29.05.39.15Zm.05,1.71v3.7h-.88v-3.7h.88Z" fill="#fff" stroke-width="0"/><path d="m45.79,86.34h-2.09c.03.37.11.64.24.79.13.15.31.23.55.23.15,0,.29-.03.42-.08.13-.05.27-.13.42-.24l.36.5c-.37.32-.79.48-1.27.48-.52,0-.92-.17-1.2-.51-.28-.34-.42-.81-.42-1.42s.13-1.08.4-1.44c.27-.36.64-.54,1.12-.54s.83.16,1.09.48c.26.32.39.78.39,1.39,0,.04,0,.16-.02.36Zm-.84-.61c0-.34-.05-.59-.15-.75-.1-.17-.25-.25-.47-.25-.2,0-.35.08-.45.24-.11.16-.17.43-.19.8h1.25v-.04Z" fill="#fff" stroke-width="0"/><path d="m48.48,87.74c-.12.09-.25.16-.4.21-.15.05-.3.07-.45.07-.34,0-.6-.1-.78-.29-.18-.2-.27-.47-.27-.82v-2.07h-.5v-.63h.5v-.82l.88-.1v.92h.78l-.09.63h-.69v2.06c0,.14.03.24.08.31.05.07.14.1.26.1.13,0,.25-.04.38-.12l.31.55Z" fill="#fff" stroke-width="0"/><path d="m50.58,87.93c-.13.45-.34.81-.63,1.06-.29.26-.67.41-1.16.45l-.09-.64c.32-.05.55-.14.71-.27.15-.13.28-.34.38-.62h-.32l-1.04-3.7h.9l.71,3.12.74-3.12h.88l-1.08,3.72Z" fill="#fff" stroke-width="0"/><path d="m53.87,87.79c-.15-.16-.23-.38-.23-.67v-4.39l.88-.09v4.45c0,.15.06.22.19.22.06,0,.12,0,.17-.03l.17.6c-.15.09-.34.13-.55.13-.27,0-.48-.08-.63-.24Z" fill="#fff" stroke-width="0"/><path d="m58.13,87.28c.04.06.1.11.18.15l-.18.58c-.2-.02-.36-.08-.49-.15s-.22-.2-.28-.37c-.23.36-.56.54-.99.54-.33,0-.59-.1-.79-.31s-.29-.49-.29-.83c0-.4.13-.71.4-.92.27-.21.65-.32,1.15-.32h.37v-.23c0-.23-.05-.4-.14-.5-.09-.1-.25-.15-.46-.15-.24,0-.54.06-.9.19l-.2-.58c.42-.18.84-.27,1.24-.27.88,0,1.32.42,1.32,1.25v1.62c0,.13.02.23.06.29Zm-.92-.35v-.77h-.28c-.51,0-.77.22-.77.66,0,.19.04.33.12.42s.19.14.33.14c.26,0,.46-.15.6-.46Z" fill="#fff" stroke-width="0"/><path d="m63.13,84.22l-.71,3.7h-1.08l-.48-2.91-.48,2.91h-1.06l-.73-3.7h.86l.44,3.05.55-3.05h.9l.51,3.05.46-3.05h.83Z" fill="#fff" stroke-width="0"/><path d="m65.97,84.55l-.34.5c-.28-.2-.55-.29-.82-.29-.15,0-.27.04-.36.1-.08.07-.13.17-.13.29,0,.09.02.16.06.22.04.06.11.11.21.17s.25.11.44.18c.35.12.62.26.79.43.17.17.26.41.26.71,0,.36-.14.65-.41.86-.27.21-.62.31-1.03.31-.28,0-.53-.04-.76-.14-.23-.09-.43-.22-.59-.38l.43-.48c.29.23.59.35.89.35.18,0,.32-.04.42-.12s.15-.19.15-.34c0-.11-.02-.19-.06-.26-.04-.07-.11-.13-.21-.18-.1-.06-.26-.12-.47-.18-.34-.12-.6-.26-.75-.44-.16-.18-.23-.4-.23-.66,0-.21.05-.39.16-.56.11-.17.26-.3.46-.39.2-.09.43-.14.69-.14.46,0,.86.15,1.2.44Z" fill="#fff" stroke-width="0"/><path d="m87.6,75.27c.32.13.59.37.79.72.2.35.3.85.3,1.49,0,.91-.2,1.54-.6,1.9-.4.36-.91.54-1.54.54h-1.23v-4.84h1.13c.44,0,.82.06,1.14.19Zm-1.36.49v3.48h.39c.36,0,.64-.13.84-.38s.3-.71.3-1.39c0-.47-.05-.83-.15-1.08-.1-.25-.23-.42-.4-.51-.17-.09-.37-.13-.61-.13h-.36Z" fill="#cc503e" stroke-width="0"/><path d="m92.23,78.34h-2.09c.03.37.11.64.24.79.13.15.31.23.55.23.15,0,.29-.03.42-.08.13-.05.27-.13.42-.24l.36.5c-.37.32-.79.48-1.27.48-.52,0-.92-.17-1.2-.51-.28-.34-.42-.81-.42-1.42s.13-1.08.4-1.44c.27-.36.64-.54,1.12-.54s.83.16,1.09.48c.26.32.39.78.39,1.39,0,.04,0,.16-.02.36Zm-.84-.61c0-.34-.05-.59-.15-.75-.1-.17-.25-.25-.47-.25-.2,0-.35.08-.45.24-.11.16-.17.43-.19.8h1.25v-.04Z" fill="#cc503e" stroke-width="0"/><path d="m95.57,75.41c-.07.07-.1.19-.1.35v.45h.78l-.1.63h-.69v3.07h-.88v-3.07h-.53v-.63h.53v-.44c0-.34.1-.61.31-.82.21-.21.5-.31.89-.31.31,0,.6.07.88.21l-.25.58c-.18-.08-.36-.13-.54-.13-.15,0-.26.04-.33.11Z" fill="#cc503e" stroke-width="0"/><path d="m99.15,79.28c.04.06.1.11.18.15l-.18.58c-.2-.02-.36-.08-.49-.15s-.22-.2-.28-.37c-.23.36-.56.54-.99.54-.33,0-.59-.1-.79-.31s-.29-.49-.29-.83c0-.4.13-.71.4-.92.27-.21.65-.32,1.15-.32h.37v-.23c0-.23-.05-.4-.14-.5-.09-.1-.25-.15-.46-.15-.24,0-.54.06-.9.19l-.2-.58c.42-.18.84-.27,1.24-.27.88,0,1.32.42,1.32,1.25v1.62c0,.13.02.23.06.29Zm-.92-.35v-.77h-.28c-.51,0-.77.22-.77.66,0,.19.04.33.12.42s.19.14.33.14c.26,0,.46-.15.6-.46Z" fill="#cc503e" stroke-width="0"/><path d="m102.02,76.22c.18.07.35.18.5.32l-.38.51c-.21-.17-.43-.25-.66-.25s-.42.1-.54.3c-.12.2-.19.53-.19.98s.06.77.19.95c.12.19.3.28.54.28.12,0,.22-.02.32-.06.1-.04.21-.1.33-.19l.39.53c-.32.29-.68.43-1.08.43-.5,0-.9-.17-1.18-.5-.29-.33-.43-.81-.43-1.42,0-.4.07-.75.2-1.05.13-.3.32-.53.56-.69s.52-.24.84-.24c.22,0,.42.04.59.11Z" fill="#cc503e" stroke-width="0"/><path d="m105.03,79.74c-.12.09-.25.16-.4.21-.15.05-.3.07-.45.07-.34,0-.6-.1-.78-.29-.18-.2-.27-.47-.27-.82v-2.07h-.5v-.63h.5v-.82l.88-.1v.92h.78l-.09.63h-.69v2.06c0,.14.03.24.08.31.05.07.14.1.26.1.13,0,.25-.04.38-.12l.31.55Z" fill="#cc503e" stroke-width="0"/><path d="m107.9,76.61c.28.34.42.82.42,1.45s-.14,1.08-.42,1.44c-.28.35-.67.52-1.17.52s-.89-.17-1.17-.51c-.28-.34-.42-.82-.42-1.45s.14-1.09.42-1.43c.28-.35.67-.52,1.17-.52s.89.17,1.17.5Zm-1.68.47c-.11.2-.17.53-.17.98s.06.79.17.99c.11.2.28.3.51.3s.4-.1.51-.31.17-.53.17-.99-.06-.79-.17-.99c-.11-.2-.28-.3-.51-.3s-.4.1-.51.3Z" fill="#cc503e" stroke-width="0"/><path d="m112.6,76.22c.18.07.35.18.5.32l-.38.51c-.21-.17-.43-.25-.66-.25s-.42.1-.54.3c-.12.2-.19.53-.19.98s.06.77.19.95c.12.19.3.28.54.28.12,0,.22-.02.32-.06.1-.04.21-.1.33-.19l.39.53c-.32.29-.68.43-1.08.43-.5,0-.9-.17-1.18-.5-.29-.33-.43-.81-.43-1.42,0-.4.07-.75.2-1.05.13-.3.32-.53.56-.69s.52-.24.84-.24c.22,0,.42.04.59.11Z" fill="#cc503e" stroke-width="0"/><path d="m114.46,74.5c.1.1.15.23.15.38s-.05.28-.15.38-.23.15-.39.15-.29-.05-.39-.15c-.1-.1-.15-.23-.15-.38s.05-.28.15-.38c.1-.1.23-.15.39-.15s.29.05.39.15Zm.05,1.71v3.7h-.88v-3.7h.88Z" fill="#cc503e" stroke-width="0"/><path d="m118.18,76.22l-1.07,3.7h-1.04l-1.09-3.7h.92l.7,3,.71-3h.88Z" fill="#cc503e" stroke-width="0"/><path d="m119.49,74.5c.1.1.15.23.15.38s-.05.28-.15.38-.23.15-.39.15-.29-.05-.39-.15c-.1-.1-.15-.23-.15-.38s.05-.28.15-.38c.1-.1.23-.15.39-.15s.29.05.39.15Zm.05,1.71v3.7h-.88v-3.7h.88Z" fill="#cc503e" stroke-width="0"/><path d="m120.65,79.79c-.15-.16-.23-.38-.23-.67v-4.39l.88-.09v4.45c0,.15.06.22.19.22.06,0,.12,0,.17-.03l.17.6c-.15.09-.34.13-.55.13-.27,0-.48-.08-.63-.24Z" fill="#cc503e" stroke-width="0"/><path d="m126.19,76.55l-.34.5c-.28-.2-.55-.29-.82-.29-.15,0-.27.04-.36.1-.08.07-.13.17-.13.29,0,.09.02.16.06.22.04.06.11.11.21.17s.25.11.44.18c.35.12.62.26.79.43.17.17.26.41.26.71,0,.36-.14.65-.41.86-.27.21-.62.31-1.03.31-.28,0-.53-.04-.76-.14-.23-.09-.43-.22-.59-.38l.43-.48c.29.23.59.35.89.35.18,0,.32-.04.42-.12s.15-.19.15-.34c0-.11-.02-.19-.06-.26-.04-.07-.11-.13-.21-.18-.1-.06-.26-.12-.47-.18-.34-.12-.6-.26-.75-.44-.16-.18-.23-.4-.23-.66,0-.21.05-.39.16-.56.11-.17.26-.3.46-.39.2-.09.43-.14.69-.14.46,0,.86.15,1.2.44Z" fill="#cc503e" stroke-width="0"/><path d="m129.49,76.61c.28.34.42.82.42,1.45s-.14,1.08-.42,1.44c-.28.35-.67.52-1.17.52s-.89-.17-1.17-.51c-.28-.34-.42-.82-.42-1.45s.14-1.09.42-1.43c.28-.35.67-.52,1.17-.52s.89.17,1.17.5Zm-1.68.47c-.11.2-.17.53-.17.98s.06.79.17.99c.11.2.28.3.51.3s.4-.1.51-.31.17-.53.17-.99-.06-.79-.17-.99c-.11-.2-.28-.3-.51-.3s-.4.1-.51.3Z" fill="#cc503e" stroke-width="0"/><path d="m132.64,76.22c.18.07.35.18.5.32l-.38.51c-.21-.17-.43-.25-.66-.25s-.42.1-.54.3c-.12.2-.19.53-.19.98s.06.77.19.95c.12.19.3.28.54.28.12,0,.22-.02.32-.06.1-.04.21-.1.33-.19l.39.53c-.32.29-.68.43-1.08.43-.5,0-.9-.17-1.18-.5-.29-.33-.43-.81-.43-1.42,0-.4.07-.75.2-1.05.13-.3.32-.53.56-.69s.52-.24.84-.24c.22,0,.42.04.59.11Z" fill="#cc503e" stroke-width="0"/><path d="m134.51,74.5c.1.1.15.23.15.38s-.05.28-.15.38-.23.15-.39.15-.29-.05-.39-.15c-.1-.1-.15-.23-.15-.38s.05-.28.15-.38c.1-.1.23-.15.39-.15s.29.05.39.15Zm.05,1.71v3.7h-.88v-3.7h.88Z" fill="#cc503e" stroke-width="0"/><path d="m138.27,78.34h-2.09c.03.37.11.64.24.79.13.15.31.23.55.23.15,0,.29-.03.42-.08.13-.05.27-.13.42-.24l.36.5c-.37.32-.79.48-1.27.48-.52,0-.92-.17-1.2-.51-.28-.34-.42-.81-.42-1.42s.13-1.08.4-1.44c.27-.36.64-.54,1.12-.54s.83.16,1.09.48c.26.32.39.78.39,1.39,0,.04,0,.16-.02.36Zm-.84-.61c0-.34-.05-.59-.15-.75-.1-.17-.25-.25-.47-.25-.2,0-.35.08-.45.24-.11.16-.17.43-.19.8h1.25v-.04Z" fill="#cc503e" stroke-width="0"/><path d="m140.96,79.74c-.12.09-.25.16-.4.21-.15.05-.3.07-.45.07-.34,0-.6-.1-.78-.29-.18-.2-.27-.47-.27-.82v-2.07h-.5v-.63h.5v-.82l.88-.1v.92h.78l-.09.63h-.69v2.06c0,.14.03.24.08.31.05.07.14.1.26.1.13,0,.25-.04.38-.12l.31.55Z" fill="#cc503e" stroke-width="0"/><path d="m143.06,79.93c-.13.45-.34.81-.63,1.06-.29.26-.67.41-1.16.45l-.09-.64c.32-.05.55-.14.71-.27.15-.13.28-.34.38-.62h-.32l-1.04-3.7h.9l.71,3.12.74-3.12h.88l-1.08,3.72Z" fill="#cc503e" stroke-width="0"/><path d="m82.87,84.17l-.15.85c-.1-.03-.2-.04-.29-.04-.2,0-.35.08-.47.23-.11.15-.2.39-.26.7v2.02h-.88v-3.7h.76l.07.69c.09-.26.21-.45.36-.58s.32-.2.52-.2c.1,0,.21.02.33.05Z" fill="#cc503e" stroke-width="0"/><path d="m85.94,86.34h-2.09c.03.37.11.64.24.79.13.15.31.23.55.23.15,0,.29-.03.42-.08.13-.05.27-.13.42-.24l.36.5c-.37.32-.79.48-1.27.48-.52,0-.92-.17-1.2-.51-.28-.34-.42-.81-.42-1.42s.13-1.08.4-1.44c.27-.36.64-.54,1.12-.54s.83.16,1.09.48c.26.32.39.78.39,1.39,0,.04,0,.16-.02.36Zm-.84-.61c0-.34-.05-.59-.15-.75-.1-.17-.25-.25-.47-.25-.2,0-.35.08-.45.24-.11.16-.17.43-.19.8h1.25v-.04Z" fill="#cc503e" stroke-width="0"/><path d="m89.6,84.4c-.21.09-.53.13-.96.13.21.09.37.22.47.37s.15.35.15.57c0,.37-.12.67-.37.9s-.58.34-1,.34c-.15,0-.29-.02-.39-.06-.04.03-.08.07-.1.12-.03.05-.04.1-.04.16,0,.08.03.15.09.2.06.05.16.07.31.07h.47c.39,0,.7.1.93.29s.34.45.34.75c0,.36-.14.64-.43.85s-.71.31-1.25.31c-.57,0-.98-.1-1.21-.29-.23-.19-.35-.48-.35-.87h.78c0,.2.05.34.16.42s.31.13.62.13.5-.04.62-.13.18-.21.18-.38c0-.3-.19-.45-.58-.45h-.39c-.35,0-.62-.07-.78-.2s-.25-.3-.25-.51c0-.13.04-.25.11-.37.07-.12.17-.22.29-.3-.21-.12-.36-.27-.45-.43s-.14-.37-.14-.62c0-.4.13-.72.39-.96.26-.24.6-.36,1.03-.36.35,0,.63-.03.85-.1.22-.07.45-.17.69-.3l.22.69Zm-2.17.48c-.1.12-.14.3-.14.54s.05.41.15.54c.1.13.24.19.41.19.19,0,.33-.06.43-.18s.14-.31.14-.56c0-.48-.19-.71-.57-.71-.18,0-.32.06-.42.18Z" fill="#cc503e" stroke-width="0"/><path d="m92.71,87.92h-.76l-.05-.49c-.13.2-.27.35-.43.45-.16.1-.35.15-.57.15-.3,0-.53-.1-.7-.29-.17-.2-.25-.46-.25-.79v-2.72h.88v2.65c0,.17.03.3.09.38.06.08.15.12.28.12.24,0,.46-.17.64-.5v-2.64h.88v3.7Z" fill="#cc503e" stroke-width="0"/><path d="m93.83,87.79c-.15-.16-.23-.38-.23-.67v-4.39l.88-.09v4.45c0,.15.06.22.19.22.06,0,.12,0,.17-.03l.17.6c-.15.09-.34.13-.55.13-.27,0-.48-.08-.63-.24Z" fill="#cc503e" stroke-width="0"/><path d="m98.08,87.28c.04.06.1.11.18.15l-.18.58c-.2-.02-.36-.08-.49-.15s-.22-.2-.28-.37c-.23.36-.56.54-.99.54-.33,0-.59-.1-.79-.31s-.29-.49-.29-.83c0-.4.13-.71.4-.92.27-.21.65-.32,1.15-.32h.37v-.23c0-.23-.05-.4-.14-.5-.09-.1-.25-.15-.46-.15-.24,0-.54.06-.9.19l-.2-.58c.42-.18.84-.27,1.24-.27.88,0,1.32.42,1.32,1.25v1.62c0,.13.02.23.06.29Zm-.92-.35v-.77h-.28c-.51,0-.77.22-.77.66,0,.19.04.33.12.42s.19.14.33.14c.26,0,.46-.15.6-.46Z" fill="#cc503e" stroke-width="0"/><path d="m100.93,87.74c-.12.09-.25.16-.4.21-.15.05-.3.07-.45.07-.34,0-.6-.1-.78-.29-.18-.2-.27-.47-.27-.82v-2.07h-.5v-.63h.5v-.82l.88-.1v.92h.78l-.09.63h-.69v2.06c0,.14.03.24.08.31.05.07.14.1.26.1.13,0,.25-.04.38-.12l.31.55Z" fill="#cc503e" stroke-width="0"/><path d="m103.8,84.61c.28.34.42.82.42,1.45s-.14,1.08-.42,1.44c-.28.35-.67.52-1.17.52s-.89-.17-1.17-.51c-.28-.34-.42-.82-.42-1.45s.14-1.09.42-1.43c.28-.35.67-.52,1.17-.52s.89.17,1.17.5Zm-1.68.47c-.11.2-.17.53-.17.98s.06.79.17.99c.11.2.28.3.51.3s.4-.1.51-.31.17-.53.17-.99-.06-.79-.17-.99c-.11-.2-.28-.3-.51-.3s-.4.1-.51.3Z" fill="#cc503e" stroke-width="0"/><path d="m107,84.17l-.15.85c-.1-.03-.2-.04-.29-.04-.2,0-.35.08-.47.23-.11.15-.2.39-.26.7v2.02h-.88v-3.7h.76l.07.69c.09-.26.21-.45.36-.58s.32-.2.52-.2c.1,0,.21.02.33.05Z" fill="#cc503e" stroke-width="0"/><path d="m109.17,87.93c-.13.45-.34.81-.63,1.06-.29.26-.67.41-1.16.45l-.09-.64c.32-.05.55-.14.71-.27.15-.13.28-.34.38-.62h-.32l-1.04-3.7h.9l.71,3.12.74-3.12h.88l-1.08,3.72Z" fill="#cc503e" stroke-width="0"/><path d="m115.06,86.34h-2.09c.03.37.11.64.24.79.13.15.31.23.55.23.15,0,.29-.03.42-.08.13-.05.27-.13.42-.24l.36.5c-.37.32-.79.48-1.27.48-.52,0-.92-.17-1.2-.51-.28-.34-.42-.81-.42-1.42s.13-1.08.4-1.44c.27-.36.64-.54,1.12-.54s.83.16,1.09.48c.26.32.39.78.39,1.39,0,.04,0,.16-.02.36Zm-.84-.61c0-.34-.05-.59-.15-.75-.1-.17-.25-.25-.47-.25-.2,0-.35.08-.45.24-.11.16-.17.43-.19.8h1.25v-.04Z" fill="#cc503e" stroke-width="0"/><path d="m118.31,84.4c.17.2.25.46.25.8v2.72h-.88v-2.6c0-.2-.03-.33-.09-.42-.06-.08-.16-.12-.28-.12s-.24.05-.35.14c-.11.09-.21.23-.32.41v2.58h-.88v-3.7h.76l.06.48c.13-.19.29-.34.45-.44.17-.1.35-.15.56-.15.29,0,.53.1.69.29Z" fill="#cc503e" stroke-width="0"/><path d="m122.16,84.22l-1.07,3.7h-1.04l-1.09-3.7h.92l.7,3,.71-3h.88Z" fill="#cc503e" stroke-width="0"/><path d="m123.46,82.5c.1.1.15.23.15.38s-.05.28-.15.38-.23.15-.39.15-.29-.05-.39-.15c-.1-.1-.15-.23-.15-.38s.05-.28.15-.38c.1-.1.23-.15.39-.15s.29.05.39.15Zm.05,1.71v3.7h-.88v-3.7h.88Z" fill="#cc503e" stroke-width="0"/><path d="m126.48,84.17l-.15.85c-.1-.03-.2-.04-.29-.04-.2,0-.35.08-.47.23-.11.15-.2.39-.26.7v2.02h-.88v-3.7h.76l.07.69c.09-.26.21-.45.36-.58s.32-.2.52-.2c.1,0,.21.02.33.05Z" fill="#cc503e" stroke-width="0"/><path d="m129.32,84.61c.28.34.42.82.42,1.45s-.14,1.08-.42,1.44c-.28.35-.67.52-1.17.52s-.89-.17-1.17-.51c-.28-.34-.42-.82-.42-1.45s.14-1.09.42-1.43c.28-.35.67-.52,1.17-.52s.89.17,1.17.5Zm-1.68.47c-.11.2-.17.53-.17.98s.06.79.17.99c.11.2.28.3.51.3s.4-.1.51-.31.17-.53.17-.99-.06-.79-.17-.99c-.11-.2-.28-.3-.51-.3s-.4.1-.51.3Z" fill="#cc503e" stroke-width="0"/><path d="m133.01,84.4c.17.2.25.46.25.8v2.72h-.88v-2.6c0-.2-.03-.33-.09-.42-.06-.08-.16-.12-.28-.12s-.24.05-.35.14c-.11.09-.21.23-.32.41v2.58h-.88v-3.7h.76l.06.48c.13-.19.29-.34.45-.44.17-.1.35-.15.56-.15.29,0,.53.1.69.29Z" fill="#cc503e" stroke-width="0"/><path d="m138.38,84.41c.16.2.24.46.24.79v2.72h-.87v-2.6c0-.36-.11-.54-.33-.54-.12,0-.22.05-.32.14s-.19.23-.29.4v2.6h-.86v-2.6c0-.36-.11-.54-.33-.54-.12,0-.23.05-.33.14-.1.09-.19.23-.28.4v2.6h-.87v-3.7h.76l.06.48c.26-.39.58-.58.96-.58.19,0,.36.06.5.17.14.11.24.26.31.46.13-.2.28-.35.44-.46s.35-.16.56-.16c.27,0,.48.1.64.3Z" fill="#cc503e" stroke-width="0"/><path d="m142.31,86.34h-2.09c.03.37.11.64.24.79.13.15.31.23.55.23.15,0,.29-.03.42-.08.13-.05.27-.13.42-.24l.36.5c-.37.32-.79.48-1.27.48-.52,0-.92-.17-1.2-.51-.28-.34-.42-.81-.42-1.42s.13-1.08.4-1.44c.27-.36.64-.54,1.12-.54s.83.16,1.09.48c.26.32.39.78.39,1.39,0,.04,0,.16-.02.36Zm-.84-.61c0-.34-.05-.59-.15-.75-.1-.17-.25-.25-.47-.25-.2,0-.35.08-.45.24-.11.16-.17.43-.19.8h1.25v-.04Z" fill="#cc503e" stroke-width="0"/><path d="m145.56,84.4c.17.2.25.46.25.8v2.72h-.88v-2.6c0-.2-.03-.33-.09-.42-.06-.08-.16-.12-.28-.12s-.24.05-.35.14c-.11.09-.21.23-.32.41v2.58h-.88v-3.7h.76l.06.48c.13-.19.29-.34.45-.44.17-.1.35-.15.56-.15.29,0,.53.1.69.29Z" fill="#cc503e" stroke-width="0"/><path d="m148.67,87.74c-.12.09-.25.16-.4.21-.15.05-.3.07-.45.07-.34,0-.6-.1-.78-.29-.18-.2-.27-.47-.27-.82v-2.07h-.5v-.63h.5v-.82l.88-.1v.92h.78l-.09.63h-.69v2.06c0,.14.03.24.08.31.05.07.14.1.26.1.13,0,.25-.04.38-.12l.31.55Z" fill="#cc503e" stroke-width="0"/><path d="m273.65,66.1c.2.08.4.21.6.38l-.45.52c-.26-.22-.53-.33-.8-.33-.32,0-.57.14-.75.43-.18.28-.27.75-.27,1.39s.09,1.08.27,1.37.43.43.76.43c.17,0,.31-.03.44-.09.12-.06.27-.16.42-.28l.43.52c-.16.17-.36.31-.58.42-.22.11-.47.17-.76.17-.39,0-.73-.09-1.02-.28-.29-.19-.52-.47-.68-.85-.16-.38-.24-.85-.24-1.4s.08-1,.25-1.38.4-.66.69-.85c.29-.19.62-.28.99-.28.27,0,.5.04.7.13Z" fill="#fff" stroke-width="0"/><path d="m277.26,67.61c.28.34.42.82.42,1.45s-.14,1.08-.42,1.43c-.28.35-.67.53-1.17.53s-.89-.17-1.17-.51c-.28-.34-.42-.83-.42-1.45s.14-1.09.42-1.44c.28-.34.67-.52,1.17-.52s.89.17,1.17.5Zm-1.68.47c-.11.2-.17.53-.17.98s.06.79.17.99c.11.2.28.3.51.3s.4-.1.51-.31c.11-.21.17-.53.17-.99s-.06-.79-.17-.99c-.11-.2-.28-.3-.51-.3s-.4.1-.51.3Z" fill="#fff" stroke-width="0"/><path d="m280.46,67.17l-.15.85c-.1-.03-.2-.04-.29-.04-.2,0-.35.08-.46.23-.12.15-.2.39-.26.7v2.02h-.88v-3.7h.76l.07.69c.09-.26.21-.45.36-.58.15-.13.32-.2.52-.2.1,0,.21.02.33.05Z" fill="#fff" stroke-width="0"/><path d="m283.52,69.34h-2.09c.03.37.11.64.24.79.13.15.31.23.54.23.15,0,.29-.03.42-.08s.27-.13.42-.24l.37.5c-.37.32-.79.48-1.27.48-.52,0-.92-.17-1.2-.51-.28-.34-.42-.81-.42-1.42s.13-1.08.4-1.44c.27-.36.64-.54,1.12-.54s.83.16,1.09.48c.26.32.39.78.39,1.39,0,.04,0,.16-.02.36Zm-.84-.61c0-.34-.05-.59-.15-.75-.1-.17-.25-.25-.47-.25-.2,0-.35.08-.45.24-.11.16-.17.43-.19.8h1.25v-.04Z" fill="#fff" stroke-width="0"/><path d="m290.01,67.41c.16.2.24.46.24.79v2.72h-.87v-2.6c0-.36-.11-.54-.33-.54-.12,0-.22.04-.32.14-.1.09-.19.22-.29.4v2.6h-.86v-2.6c0-.36-.11-.54-.33-.54-.12,0-.23.05-.33.14-.1.09-.19.23-.28.4v2.6h-.87v-3.7h.76l.06.48c.26-.39.58-.58.96-.58.19,0,.36.05.5.16.14.11.24.26.31.46.13-.2.28-.35.44-.46.16-.11.35-.16.56-.16.27,0,.48.1.64.3Z" fill="#fff" stroke-width="0"/><path d="m291.98,65.5c.1.1.15.23.15.38s-.05.28-.15.38-.23.15-.39.15-.29-.05-.39-.15c-.1-.1-.15-.23-.15-.38s.05-.28.15-.38c.1-.1.23-.15.39-.15s.29.05.39.15Zm.04,1.71v3.7h-.88v-3.7h.88Z" fill="#fff" stroke-width="0"/><path d="m295.25,67.55l-.34.5c-.28-.2-.55-.29-.82-.29-.15,0-.27.04-.36.11s-.12.17-.12.29c0,.09.02.16.06.22s.11.11.21.16.24.11.44.18c.35.12.62.26.79.43.17.17.26.41.26.71,0,.36-.14.65-.41.86-.27.21-.62.31-1.03.31-.28,0-.53-.05-.76-.14s-.43-.22-.6-.38l.43-.48c.29.23.59.35.89.35.18,0,.31-.04.42-.12.1-.08.15-.19.15-.34,0-.11-.02-.19-.06-.26-.04-.07-.11-.13-.21-.18-.1-.06-.26-.12-.47-.18-.35-.12-.6-.26-.75-.44-.16-.18-.23-.4-.23-.66,0-.21.05-.39.16-.56s.26-.29.46-.39c.2-.09.43-.14.69-.14.46,0,.86.15,1.21.44Z" fill="#fff" stroke-width="0"/><path d="m298.22,67.55l-.34.5c-.28-.2-.55-.29-.82-.29-.15,0-.27.04-.36.11s-.12.17-.12.29c0,.09.02.16.06.22s.11.11.21.16.24.11.44.18c.35.12.62.26.79.43.17.17.26.41.26.71,0,.36-.14.65-.41.86-.27.21-.62.31-1.03.31-.28,0-.53-.05-.76-.14s-.43-.22-.6-.38l.43-.48c.29.23.59.35.89.35.18,0,.31-.04.42-.12.1-.08.15-.19.15-.34,0-.11-.02-.19-.06-.26-.04-.07-.11-.13-.21-.18-.1-.06-.26-.12-.47-.18-.35-.12-.6-.26-.75-.44-.16-.18-.23-.4-.23-.66,0-.21.05-.39.16-.56s.26-.29.46-.39c.2-.09.43-.14.69-.14.46,0,.86.15,1.21.44Z" fill="#fff" stroke-width="0"/><path d="m299.79,65.5c.1.1.15.23.15.38s-.05.28-.15.38-.23.15-.39.15-.29-.05-.39-.15c-.1-.1-.15-.23-.15-.38s.05-.28.15-.38c.1-.1.23-.15.39-.15s.29.05.39.15Zm.04,1.71v3.7h-.88v-3.7h.88Z" fill="#fff" stroke-width="0"/><path d="m303.32,67.61c.28.34.42.82.42,1.45s-.14,1.08-.42,1.43c-.28.35-.67.53-1.17.53s-.89-.17-1.17-.51c-.28-.34-.42-.83-.42-1.45s.14-1.09.42-1.44c.28-.34.67-.52,1.17-.52s.89.17,1.17.5Zm-1.68.47c-.11.2-.17.53-.17.98s.06.79.17.99c.11.2.28.3.51.3s.4-.1.51-.31c.11-.21.17-.53.17-.99s-.06-.79-.17-.99c-.11-.2-.28-.3-.51-.3s-.4.1-.51.3Z" fill="#fff" stroke-width="0"/><path d="m307.01,67.4c.17.2.25.46.25.8v2.72h-.88v-2.6c0-.2-.03-.33-.1-.42-.06-.08-.15-.12-.28-.12s-.24.05-.35.14c-.11.09-.21.23-.32.41v2.58h-.88v-3.7h.76l.06.48c.13-.19.29-.34.45-.44.17-.1.35-.15.56-.15.29,0,.53.1.69.29Z" fill="#fff" stroke-width="0"/><path d="m308.86,70.07c.1.11.15.24.15.4,0,.08-.01.16-.04.25-.03.09-.07.21-.14.37l-.41,1.03h-.51l.27-1.19c-.08-.05-.14-.12-.18-.2-.04-.08-.06-.17-.06-.26,0-.16.05-.29.15-.4.1-.1.23-.16.38-.16s.29.05.39.16Z" fill="#fff" stroke-width="0"/><path d="m271.38,75.22l-1.07,3.7h-1.04l-1.09-3.7h.92l.7,3,.71-3h.88Z" fill="#fff" stroke-width="0"/><path d="m272.68,73.5c.1.1.15.23.15.38s-.05.28-.15.38c-.1.1-.23.15-.39.15s-.29-.05-.39-.15c-.1-.1-.15-.23-.15-.38s.05-.28.15-.38c.1-.1.23-.15.39-.15s.29.05.39.15Zm.05,1.71v3.7h-.88v-3.7h.88Z" fill="#fff" stroke-width="0"/><path d="m275.95,75.55l-.34.5c-.28-.2-.55-.29-.82-.29-.15,0-.27.04-.36.11s-.12.17-.12.29c0,.09.02.16.06.22s.11.11.21.16.24.11.44.18c.35.12.62.26.79.43.17.17.26.41.26.71,0,.36-.14.65-.41.86-.27.21-.62.31-1.03.31-.28,0-.53-.05-.76-.14s-.43-.22-.6-.38l.43-.48c.29.23.59.35.89.35.18,0,.31-.04.42-.12.1-.08.15-.19.15-.34,0-.11-.02-.19-.06-.26-.04-.07-.11-.13-.21-.18-.1-.06-.26-.12-.47-.18-.35-.12-.6-.26-.75-.44-.16-.18-.23-.4-.23-.66,0-.21.05-.39.16-.56s.26-.29.46-.39c.2-.09.43-.14.69-.14.46,0,.86.15,1.21.44Z" fill="#fff" stroke-width="0"/><path d="m277.51,73.5c.1.1.15.23.15.38s-.05.28-.15.38c-.1.1-.23.15-.39.15s-.29-.05-.39-.15c-.1-.1-.15-.23-.15-.38s.05-.28.15-.38c.1-.1.23-.15.39-.15s.29.05.39.15Zm.05,1.71v3.7h-.88v-3.7h.88Z" fill="#fff" stroke-width="0"/><path d="m281.05,75.61c.28.34.42.82.42,1.45s-.14,1.08-.42,1.43c-.28.35-.67.53-1.17.53s-.89-.17-1.17-.51c-.28-.34-.42-.83-.42-1.45s.14-1.09.42-1.44c.28-.34.67-.52,1.17-.52s.89.17,1.17.5Zm-1.68.47c-.11.2-.17.53-.17.98s.06.79.17.99c.11.2.28.3.51.3s.4-.1.51-.31c.11-.21.17-.53.17-.99s-.06-.79-.17-.99c-.11-.2-.28-.3-.51-.3s-.4.1-.51.3Z" fill="#fff" stroke-width="0"/><path d="m284.74,75.4c.17.2.25.46.25.8v2.72h-.88v-2.6c0-.2-.03-.33-.09-.42-.06-.08-.16-.12-.28-.12s-.24.05-.35.14c-.11.09-.21.23-.31.41v2.58h-.88v-3.7h.76l.06.48c.13-.19.29-.34.45-.44s.35-.15.56-.15c.29,0,.53.1.69.29Z" fill="#fff" stroke-width="0"/><path d="m289.88,74.28c.24.21.35.47.35.8,0,.27-.07.51-.22.71-.15.2-.37.4-.64.58l.95,1.03c.14-.35.25-.71.33-1.08l.73.2c-.15.52-.35.97-.57,1.34l.75.74-.7.41-.55-.6c-.39.4-.85.6-1.39.6-.29,0-.56-.06-.79-.17-.23-.11-.41-.27-.53-.47-.13-.2-.19-.44-.19-.7,0-.29.07-.53.21-.74s.36-.42.66-.64c-.23-.23-.39-.44-.48-.61-.09-.17-.14-.37-.14-.59,0-.32.11-.59.33-.81.22-.21.54-.32.95-.32s.71.1.95.31Zm-1.46,2.89c-.07.14-.11.29-.11.47,0,.23.06.41.2.53s.31.19.53.19c.31,0,.58-.13.82-.39l-1.1-1.2c-.15.13-.27.26-.34.4Zm.19-2.47c-.08.09-.12.22-.12.4,0,.15.03.28.09.4s.16.26.31.43c.17-.14.3-.27.38-.4.08-.12.12-.27.12-.44,0-.18-.04-.31-.12-.4-.08-.09-.19-.13-.33-.13s-.26.05-.34.14Z" fill="#fff" stroke-width="0"/><path d="m296.47,75.22l-1.07,3.7h-1.04l-1.09-3.7h.92l.7,3,.71-3h.88Z" fill="#fff" stroke-width="0"/><path d="m299.42,78.28c.04.06.1.11.18.15l-.18.58c-.2-.02-.36-.07-.49-.15-.12-.08-.22-.2-.28-.37-.23.36-.56.54-.99.54-.33,0-.59-.11-.79-.32-.2-.21-.29-.49-.29-.83,0-.4.13-.71.4-.92.27-.21.65-.32,1.15-.32h.37v-.23c0-.23-.05-.4-.14-.5-.09-.1-.25-.15-.46-.15-.24,0-.54.06-.9.19l-.2-.58c.42-.18.84-.27,1.24-.27.88,0,1.32.42,1.32,1.25v1.62c0,.13.02.23.06.29Zm-.92-.35v-.77h-.28c-.51,0-.77.22-.77.66,0,.19.04.33.12.42.08.1.19.14.33.14.26,0,.46-.15.6-.45Z" fill="#fff" stroke-width="0"/><path d="m300.41,78.79c-.15-.16-.23-.38-.23-.67v-4.39l.88-.09v4.45c0,.15.06.22.19.22.06,0,.12,0,.17-.03l.18.6c-.15.09-.34.13-.55.13-.27,0-.48-.08-.63-.24Z" fill="#fff" stroke-width="0"/><path d="m304.84,78.92h-.76l-.05-.49c-.13.2-.27.35-.43.45-.16.1-.35.15-.57.15-.3,0-.53-.1-.7-.29-.17-.2-.25-.46-.25-.79v-2.72h.88v2.65c0,.17.03.3.09.38s.15.12.28.12c.24,0,.46-.17.64-.5v-2.64h.88v3.7Z" fill="#fff" stroke-width="0"/><path d="m308.55,77.34h-2.09c.03.37.11.64.24.79.13.15.31.23.55.23.15,0,.29-.03.42-.08s.27-.13.42-.24l.36.5c-.37.32-.79.48-1.27.48-.52,0-.92-.17-1.2-.51-.28-.34-.42-.81-.42-1.42s.13-1.08.4-1.44c.27-.36.64-.54,1.12-.54s.83.16,1.09.48c.26.32.39.78.39,1.39,0,.04,0,.16-.02.36Zm-.84-.61c0-.34-.05-.59-.15-.75-.1-.17-.25-.25-.47-.25-.2,0-.35.08-.45.24s-.17.43-.19.8h1.25v-.04Z" fill="#fff" stroke-width="0"/><path d="m311.56,75.55l-.34.5c-.28-.2-.55-.29-.82-.29-.15,0-.27.04-.36.11s-.12.17-.12.29c0,.09.02.16.06.22s.11.11.21.16.24.11.44.18c.35.12.62.26.79.43.17.17.26.41.26.71,0,.36-.14.65-.41.86-.27.21-.62.31-1.03.31-.28,0-.53-.05-.76-.14s-.43-.22-.6-.38l.43-.48c.29.23.59.35.89.35.18,0,.31-.04.42-.12.1-.08.15-.19.15-.34,0-.11-.02-.19-.06-.26-.04-.07-.11-.13-.21-.18-.1-.06-.26-.12-.47-.18-.35-.12-.6-.26-.75-.44-.16-.18-.23-.4-.23-.66,0-.21.05-.39.16-.56s.26-.29.46-.39c.2-.09.43-.14.69-.14.46,0,.86.15,1.21.44Z" fill="#fff" stroke-width="0"/><path d="m325.6,66.47c.32.26.48.64.48,1.15s-.16.93-.48,1.2c-.32.27-.76.4-1.32.4h-.41v1.69h-.91v-4.84h1.25c.6,0,1.06.13,1.38.39Zm-.68,1.87c.15-.14.22-.38.22-.72,0-.3-.07-.52-.22-.67-.15-.14-.38-.21-.69-.21h-.35v1.8h.35c.31,0,.54-.07.69-.21Z" fill="#1d6996" stroke-width="0"/><path d="m328.58,67.17l-.15.85c-.1-.03-.2-.04-.29-.04-.2,0-.35.08-.47.23-.11.15-.2.39-.26.7v2.02h-.88v-3.7h.76l.07.69c.09-.26.21-.45.36-.58.15-.13.32-.2.53-.2.1,0,.21.02.33.05Z" fill="#1d6996" stroke-width="0"/><path d="m331.43,67.61c.28.34.42.82.42,1.45s-.14,1.08-.42,1.43c-.28.35-.67.53-1.17.53s-.89-.17-1.17-.51c-.28-.34-.42-.83-.42-1.45s.14-1.09.42-1.44c.28-.34.67-.52,1.17-.52s.89.17,1.17.5Zm-1.68.47c-.11.2-.17.53-.17.98s.06.79.17.99c.11.2.28.3.51.3s.4-.1.51-.31c.11-.21.17-.53.17-.99s-.06-.79-.17-.99c-.11-.2-.28-.3-.51-.3s-.4.1-.51.3Z" fill="#1d6996" stroke-width="0"/><path d="m335.53,67.4c-.21.09-.54.13-.96.13.21.09.37.22.47.38.1.16.15.35.15.57,0,.37-.12.67-.37.9-.25.23-.58.34-1,.34-.15,0-.29-.02-.39-.06-.04.03-.07.07-.1.12-.03.05-.04.1-.04.16,0,.08.03.15.09.2.06.05.16.07.31.07h.47c.39,0,.7.1.93.29.23.2.34.45.34.75,0,.36-.14.64-.43.85s-.71.32-1.25.32c-.57,0-.98-.1-1.21-.29-.23-.19-.35-.48-.35-.86h.78c0,.2.05.34.16.42s.31.13.62.13.5-.04.62-.13c.12-.09.18-.21.18-.37,0-.3-.19-.46-.58-.46h-.39c-.35,0-.62-.07-.78-.2-.17-.13-.25-.3-.25-.51,0-.13.04-.25.11-.37.07-.12.17-.22.29-.3-.21-.12-.36-.27-.45-.43s-.14-.37-.14-.62c0-.4.13-.72.39-.96.26-.24.6-.36,1.03-.36.35,0,.63-.03.85-.1s.45-.17.69-.3l.22.69Zm-2.17.48c-.1.12-.14.3-.14.54s.05.42.15.54.24.19.41.19c.19,0,.33-.06.43-.18s.14-.31.14-.56c0-.48-.19-.71-.57-.71-.18,0-.32.06-.42.18Z" fill="#1d6996" stroke-width="0"/><path d="m338.03,67.17l-.15.85c-.1-.03-.2-.04-.29-.04-.2,0-.35.08-.47.23-.11.15-.2.39-.26.7v2.02h-.88v-3.7h.76l.07.69c.09-.26.21-.45.36-.58.15-.13.32-.2.53-.2.1,0,.21.02.33.05Z" fill="#1d6996" stroke-width="0"/><path d="m340.88,70.28c.04.06.1.11.18.15l-.18.58c-.2-.02-.36-.07-.49-.15-.12-.08-.22-.2-.28-.37-.23.36-.56.54-.99.54-.33,0-.59-.11-.79-.32-.2-.21-.29-.49-.29-.83,0-.4.13-.71.4-.92.27-.21.65-.32,1.15-.32h.37v-.23c0-.23-.05-.4-.14-.5-.09-.1-.25-.15-.46-.15-.24,0-.54.06-.9.19l-.2-.58c.42-.18.84-.27,1.24-.27.88,0,1.32.42,1.32,1.25v1.62c0,.13.02.23.06.29Zm-.92-.35v-.77h-.28c-.51,0-.77.22-.77.66,0,.19.04.33.12.42.08.1.19.14.33.14.26,0,.46-.15.6-.45Z" fill="#1d6996" stroke-width="0"/><path d="m345.98,67.41c.16.2.24.46.24.79v2.72h-.87v-2.6c0-.36-.11-.54-.33-.54-.12,0-.22.04-.32.14-.1.09-.19.22-.29.4v2.6h-.86v-2.6c0-.36-.11-.54-.33-.54-.12,0-.23.05-.33.14-.1.09-.19.23-.28.4v2.6h-.87v-3.7h.76l.06.48c.26-.39.58-.58.96-.58.19,0,.36.05.5.16.14.11.24.26.31.46.13-.2.28-.35.44-.46.16-.11.35-.16.56-.16.27,0,.48.1.64.3Z" fill="#1d6996" stroke-width="0"/><path d="m351.35,67.41c.16.2.24.46.24.79v2.72h-.87v-2.6c0-.36-.11-.54-.33-.54-.12,0-.22.04-.32.14-.1.09-.19.22-.29.4v2.6h-.86v-2.6c0-.36-.11-.54-.33-.54-.12,0-.23.05-.33.14-.1.09-.19.23-.28.4v2.6h-.87v-3.7h.76l.06.48c.26-.39.58-.58.96-.58.19,0,.36.05.5.16.14.11.24.26.31.46.13-.2.28-.35.44-.46.16-.11.35-.16.56-.16.27,0,.48.1.64.3Z" fill="#1d6996" stroke-width="0"/><path d="m355.08,70.28c.04.06.1.11.18.15l-.18.58c-.2-.02-.36-.07-.49-.15-.12-.08-.22-.2-.28-.37-.23.36-.56.54-.99.54-.33,0-.59-.11-.79-.32-.2-.21-.29-.49-.29-.83,0-.4.13-.71.4-.92.27-.21.65-.32,1.15-.32h.37v-.23c0-.23-.05-.4-.14-.5-.09-.1-.25-.15-.46-.15-.24,0-.54.06-.9.19l-.2-.58c.42-.18.84-.27,1.24-.27.88,0,1.32.42,1.32,1.25v1.62c0,.13.02.23.06.29Zm-.92-.35v-.77h-.28c-.51,0-.77.22-.77.66,0,.19.04.33.12.42.08.1.19.14.33.14.26,0,.46-.15.6-.45Z" fill="#1d6996" stroke-width="0"/><path d="m357.93,70.74c-.12.09-.25.16-.4.21-.15.05-.3.07-.45.07-.34,0-.6-.1-.78-.29-.18-.2-.27-.47-.27-.82v-2.07h-.5v-.63h.5v-.82l.88-.11v.92h.78l-.09.63h-.69v2.06c0,.14.03.24.08.31.05.07.14.1.26.1.12,0,.25-.04.38-.12l.31.55Z" fill="#1d6996" stroke-width="0"/><path d="m359.18,65.5c.1.1.15.23.15.38s-.05.28-.15.38c-.1.1-.23.15-.39.15s-.29-.05-.39-.15c-.1-.1-.15-.23-.15-.38s.05-.28.15-.38c.1-.1.23-.15.39-.15s.29.05.39.15Zm.05,1.71v3.7h-.88v-3.7h.88Z" fill="#1d6996" stroke-width="0"/><path d="m362.14,67.22c.18.07.35.18.5.32l-.38.51c-.21-.17-.43-.25-.66-.25s-.42.1-.54.3c-.12.2-.19.53-.19.98s.06.77.19.95c.12.19.3.28.54.28.12,0,.22-.02.32-.06s.21-.1.33-.19l.39.53c-.32.28-.68.43-1.08.43-.5,0-.9-.17-1.18-.5-.29-.33-.43-.81-.43-1.42,0-.4.07-.75.2-1.05s.32-.53.56-.69.52-.24.84-.24c.22,0,.42.04.59.1Z" fill="#1d6996" stroke-width="0"/><path d="m332.88,78.89c-.18.09-.37.13-.57.13-.27,0-.47-.08-.62-.23s-.22-.38-.22-.66v-3.75c-.2-.06-.39-.08-.56-.08s-.31.04-.37.11c-.07.07-.1.2-.1.36v.45h.68l-.1.63h-.58v3.07h-.88v-3.07h-.53v-.63h.53v-.46c0-.33.1-.6.31-.81.21-.21.52-.31.92-.31.25,0,.5.04.75.13l.8-.09v4.4c0,.16.06.24.18.24.06,0,.12,0,.18-.03l.18.6Z" fill="#1d6996" stroke-width="0"/><path d="m336.14,77.34h-2.09c.03.37.11.64.24.79.13.15.31.23.54.23.15,0,.29-.03.42-.08s.27-.13.42-.24l.37.5c-.37.32-.79.48-1.27.48-.52,0-.92-.17-1.2-.51-.28-.34-.42-.81-.42-1.42s.13-1.08.4-1.44c.27-.36.64-.54,1.12-.54s.83.16,1.09.48c.26.32.39.78.39,1.39,0,.04,0,.16-.02.36Zm-.84-.61c0-.34-.05-.59-.15-.75-.1-.17-.25-.25-.47-.25-.2,0-.35.08-.45.24-.11.16-.17.43-.19.8h1.25v-.04Z" fill="#1d6996" stroke-width="0"/><path d="m338.43,76.94l1.11,1.98h-.97l-.69-1.48-.66,1.48h-.93l1.1-1.95-.99-1.75h.95l.57,1.27.55-1.27h.91l-.95,1.72Z" fill="#1d6996" stroke-width="0"/><path d="m340.81,73.5c.1.1.15.23.15.38s-.05.28-.15.38-.23.15-.39.15-.29-.05-.39-.15c-.1-.1-.15-.23-.15-.38s.05-.28.15-.38c.1-.1.23-.15.39-.15s.29.05.39.15Zm.04,1.71v3.7h-.88v-3.7h.88Z" fill="#1d6996" stroke-width="0"/><path d="m344.48,75.61c.21.34.32.82.32,1.45,0,.39-.05.74-.16,1.03-.11.3-.26.53-.46.69-.2.16-.43.24-.7.24-.36,0-.65-.16-.88-.47l-.05.36h-.78v-5.18l.88-.1v1.98c.11-.16.24-.28.4-.37.16-.09.33-.14.52-.14.39,0,.7.17.91.5Zm-.59,1.45c0-.49-.05-.82-.15-1.01-.1-.19-.25-.28-.44-.28-.25,0-.46.16-.64.49v1.69c.07.13.16.23.27.3.1.07.21.11.33.11.43,0,.64-.43.64-1.3Z" fill="#1d6996" stroke-width="0"/><path d="m346.38,73.5c.1.1.15.23.15.38s-.05.28-.15.38c-.1.1-.23.15-.39.15s-.29-.05-.39-.15c-.1-.1-.15-.23-.15-.38s.05-.28.15-.38c.1-.1.23-.15.39-.15s.29.05.39.15Zm.05,1.71v3.7h-.88v-3.7h.88Z" fill="#1d6996" stroke-width="0"/><path d="m347.54,78.79c-.15-.16-.23-.38-.23-.67v-4.39l.88-.09v4.45c0,.15.06.22.19.22.06,0,.12,0,.18-.03l.17.6c-.15.09-.34.13-.55.13-.27,0-.48-.08-.63-.24Z" fill="#1d6996" stroke-width="0"/><path d="m350.07,73.5c.1.1.15.23.15.38s-.05.28-.15.38c-.1.1-.23.15-.39.15s-.29-.05-.39-.15c-.1-.1-.15-.23-.15-.38s.05-.28.15-.38c.1-.1.23-.15.39-.15s.29.05.39.15Zm.05,1.71v3.7h-.88v-3.7h.88Z" fill="#1d6996" stroke-width="0"/><path d="m353.01,78.74c-.12.09-.25.16-.4.21-.15.05-.3.07-.45.07-.34,0-.6-.1-.78-.29-.18-.2-.27-.47-.27-.82v-2.07h-.5v-.63h.5v-.82l.88-.11v.92h.78l-.09.63h-.69v2.06c0,.14.03.24.08.31.05.07.14.1.26.1.12,0,.25-.04.38-.12l.31.55Z" fill="#1d6996" stroke-width="0"/><path d="m355.12,78.93c-.13.45-.34.81-.63,1.06s-.67.41-1.16.45l-.09-.64c.32-.05.55-.14.71-.27s.28-.34.38-.62h-.32l-1.04-3.7h.9l.71,3.12.73-3.12h.88l-1.08,3.72Z" fill="#1d6996" stroke-width="0"/><path d="m28.57,52.23h-.81v3.55h-1.87v-9h2.5c2.31,0,3.46.89,3.46,2.68,0,1.17-.52,1.98-1.57,2.42l2.07,3.9h-2.07l-1.7-3.55Zm-.09-1.31c.49,0,.86-.12,1.09-.35.23-.23.34-.6.34-1.1,0-.46-.12-.8-.37-1.01-.25-.22-.64-.33-1.16-.33h-.61v2.8h.71Z" fill="#cc503e" stroke-width="0"/><path d="m38.29,52.88h-3.87c.05.65.19,1.1.43,1.36.23.26.56.39.98.39.28,0,.54-.05.77-.14.24-.09.49-.24.76-.45l.74,1.01c-.7.62-1.5.92-2.4.92-1.01,0-1.77-.32-2.3-.96-.53-.64-.79-1.52-.79-2.66s.25-2,.76-2.68c.51-.68,1.22-1.01,2.14-1.01s1.59.3,2.09.9c.5.6.75,1.47.75,2.59,0,.27-.01.5-.04.7Zm-1.73-1.22c0-.58-.08-1.02-.25-1.31-.17-.29-.43-.44-.79-.44-.34,0-.6.14-.78.42s-.29.75-.32,1.42h2.15v-.09Z" fill="#cc503e" stroke-width="0"/><path d="m45.12,49.26c-.4.17-.99.25-1.78.25.4.18.69.42.88.7s.29.65.29,1.08c0,.68-.23,1.24-.7,1.66-.47.42-1.1.64-1.91.64-.25,0-.49-.03-.72-.08-.07.04-.13.11-.17.2s-.06.18-.06.27c0,.15.05.26.15.34.1.08.29.12.57.12h.87c.74,0,1.33.18,1.77.55.44.36.66.83.66,1.4,0,.68-.28,1.23-.84,1.62-.56.4-1.35.6-2.39.6-1.11,0-1.88-.18-2.31-.55-.43-.37-.65-.91-.65-1.63h1.61c0,.35.09.59.28.74.19.15.55.22,1.09.22s.87-.08,1.08-.23c.21-.15.31-.37.31-.64,0-.53-.33-.79-1-.79h-.73c-.68,0-1.17-.12-1.49-.36-.32-.24-.48-.56-.48-.96,0-.25.07-.49.2-.71.13-.22.32-.41.55-.57-.4-.23-.69-.49-.86-.81s-.27-.7-.27-1.16c0-.76.25-1.37.75-1.82.5-.45,1.17-.67,2-.66.62,0,1.14-.05,1.55-.19s.84-.34,1.3-.6l.46,1.36Zm-4.02.94c-.16.21-.25.53-.25.94s.08.73.25.96c.17.22.4.33.71.33.32,0,.56-.1.72-.31.16-.21.24-.54.24-1,0-.42-.08-.74-.24-.94-.16-.2-.4-.3-.72-.3s-.55.11-.72.32Z" fill="#cc503e" stroke-width="0"/><path d="m47.55,45.66c.2.2.31.45.31.75s-.1.56-.31.76c-.2.2-.46.31-.77.31s-.57-.1-.77-.31-.31-.46-.31-.76.1-.55.31-.75c.2-.2.46-.3.77-.3s.57.1.77.3Zm.12,3.22v6.89h-1.81v-6.89h1.81Z" fill="#cc503e" stroke-width="0"/><path d="m57.23,49.23c.3.36.46.85.46,1.47v5.08h-1.79v-4.84c0-.6-.18-.9-.53-.9-.19,0-.37.08-.53.23-.17.15-.33.38-.48.68v4.82h-1.78v-4.84c0-.6-.18-.9-.53-.9-.2,0-.38.08-.55.23-.16.15-.32.38-.47.68v4.82h-1.79v-6.89h1.57l.13.86c.23-.35.5-.61.79-.79.29-.18.62-.27.99-.27s.66.1.92.29c.26.2.44.47.57.84.51-.75,1.13-1.13,1.85-1.13.49,0,.89.18,1.2.55Z" fill="#cc503e" stroke-width="0"/><path d="m64.53,52.88h-3.87c.05.65.19,1.1.43,1.36.23.26.56.39.98.39.28,0,.54-.05.77-.14.24-.09.49-.24.76-.45l.74,1.01c-.7.62-1.5.92-2.4.92-1.01,0-1.77-.32-2.3-.96-.53-.64-.79-1.52-.79-2.66s.25-2,.76-2.68c.51-.68,1.22-1.01,2.14-1.01s1.59.3,2.09.9c.5.6.75,1.47.75,2.59,0,.27-.01.5-.04.7Zm-1.73-1.22c0-.58-.08-1.02-.25-1.31-.17-.29-.43-.44-.79-.44-.34,0-.6.14-.78.42s-.29.75-.32,1.42h2.15v-.09Z" fill="#cc503e" stroke-width="0"/><path d="m342.7,38.78v9h-1.87v-9h1.87Z" fill="#1d6996" stroke-width="0"/><path d="m350.53,47.78h-2.38l-2.42-7.19c.02.12.03.22.03.29.07.61.12,1.15.16,1.64s.06,1.06.06,1.71v3.55h-1.66v-9h2.34l2.46,7.2c-.16-1.13-.25-2.19-.25-3.2v-4h1.66v9Z" fill="#1d6996" stroke-width="0"/><path d="m357.13,38.85c.44.19.84.45,1.21.8l-.95.98c-.29-.23-.57-.4-.82-.51-.25-.1-.54-.16-.86-.16-1.33,0-1.99,1.1-1.99,3.31,0,.84.06,1.5.19,1.98.12.48.31.82.56,1.02.25.2.57.3.97.3s.8-.1,1.14-.31v-2.26h-1.09l-.18-1.35h3.07v4.42c-.42.29-.89.51-1.39.67-.5.16-1.01.24-1.52.24-1.23,0-2.15-.39-2.76-1.17-.61-.78-.92-1.96-.92-3.55,0-1.01.17-1.87.51-2.58.34-.71.8-1.24,1.38-1.59.58-.35,1.24-.53,1.97-.53.55,0,1.04.09,1.48.28Z" fill="#1d6996" stroke-width="0"/><path d="m365.73,39.78c.63.8.95,1.97.95,3.5s-.32,2.68-.95,3.49c-.63.81-1.53,1.22-2.68,1.22s-2.05-.4-2.69-1.2c-.64-.8-.96-1.97-.96-3.5s.32-2.68.96-3.49c.64-.81,1.53-1.22,2.69-1.22s2.04.4,2.68,1.2Zm-3.95.97c-.28.51-.42,1.36-.42,2.54s.14,2.03.42,2.54c.28.51.7.76,1.27.76s.99-.25,1.27-.76c.27-.51.41-1.35.41-2.54s-.14-2.02-.41-2.54c-.27-.51-.7-.77-1.27-.77s-1,.26-1.28.77Z" fill="#1d6996" stroke-width="0"/><path d="m89.32,12.38h-2.01l-2.05-6.08c.01.1.02.18.02.24.06.51.1.98.14,1.39.03.41.05.9.05,1.45v3h-1.41v-7.61h1.98l2.08,6.09c-.14-.95-.21-1.85-.21-2.71v-3.39h1.41v7.61Z" fill="#e17c05" stroke-width="0"/><path d="m94.87,11.29c.05.1.15.17.28.23l-.32,1.01c-.32-.04-.58-.12-.79-.24s-.36-.32-.47-.58c-.36.56-.88.85-1.57.85-.52,0-.94-.17-1.25-.5-.31-.33-.47-.77-.47-1.3,0-.63.21-1.11.64-1.45.43-.34,1.04-.51,1.84-.51h.52v-.33c0-.36-.07-.61-.2-.75-.14-.14-.36-.21-.68-.21-.38,0-.85.1-1.4.31l-.34-1c.32-.14.66-.25,1.01-.32.35-.07.68-.11.98-.11.73,0,1.26.17,1.61.51.35.34.52.84.52,1.51v2.45c0,.21.03.36.08.45Zm-1.59-.47v-1.15h-.36c-.37,0-.65.08-.84.24-.18.16-.27.4-.27.72,0,.27.05.48.17.62.11.14.27.21.47.21.36,0,.64-.21.84-.64Z" fill="#e17c05" stroke-width="0"/><path d="m99.36,12.11c-.19.15-.41.26-.66.34-.25.08-.5.12-.75.12-.56,0-.99-.16-1.28-.48-.29-.32-.43-.77-.43-1.35v-3.08h-.75v-1.09h.75v-1.28l1.53-.19v1.46h1.21l-.15,1.09h-1.06v3.07c0,.42.17.63.5.63.18,0,.37-.06.58-.18l.52.95Z" fill="#e17c05" stroke-width="0"/><path d="m104.34,12.38h-1.34l-.07-.74c-.2.3-.43.53-.68.68-.26.15-.55.23-.89.23-.47,0-.83-.16-1.09-.47s-.39-.73-.39-1.26v-4.28h1.53v4.15c0,.25.04.43.13.54.08.11.21.17.38.17.34,0,.64-.24.9-.73v-4.14h1.53v5.83Z" fill="#e17c05" stroke-width="0"/><path d="m108.99,6.47l-.25,1.47c-.15-.04-.31-.07-.46-.07-.31,0-.55.12-.71.35-.17.23-.3.58-.4,1.05v3.1h-1.53v-5.83h1.33l.12,1.06c.14-.39.33-.69.56-.9.23-.21.51-.31.82-.31.19,0,.36.03.52.08Z" fill="#e17c05" stroke-width="0"/><path d="m113.86,9.93h-3.28c.04.55.17.94.36,1.16.2.22.47.33.83.33.23,0,.45-.04.65-.12s.42-.2.64-.38l.63.86c-.59.52-1.27.78-2.03.78-.85,0-1.5-.27-1.95-.81s-.67-1.29-.67-2.25.21-1.69.64-2.27c.43-.57,1.03-.86,1.81-.86s1.34.25,1.77.76c.42.51.63,1.24.63,2.19,0,.23-.01.43-.03.59Zm-1.46-1.03c0-.49-.07-.86-.21-1.11-.14-.25-.36-.37-.67-.37-.29,0-.51.12-.66.35s-.25.63-.27,1.2h1.81v-.08Z" fill="#e17c05" stroke-width="0"/><path d="m121.39,7.17c.45.53.68,1.3.68,2.29s-.23,1.72-.68,2.27c-.46.55-1.08.82-1.88.82s-1.42-.27-1.88-.8c-.45-.54-.68-1.3-.68-2.29s.23-1.73.68-2.28c.45-.54,1.08-.81,1.89-.81s1.42.27,1.88.8Zm-2.61.81c-.16.31-.24.8-.24,1.48s.08,1.2.24,1.5.4.45.73.45.58-.15.74-.46c.16-.31.24-.8.24-1.48s-.08-1.19-.24-1.49c-.16-.3-.4-.46-.73-.46s-.58.15-.74.46Z" fill="#e17c05" stroke-width="0"/><path d="m124.97,5.37c-.1.11-.15.29-.15.54v.64h1.22l-.17,1.09h-1.06v4.74h-1.53v-4.74h-.79v-1.09h.79v-.63c0-.56.17-1.01.52-1.35.34-.34.84-.51,1.47-.51.48,0,.96.11,1.43.34l-.42,1c-.27-.13-.55-.2-.83-.2-.23,0-.39.05-.5.17Z" fill="#e17c05" stroke-width="0"/><path d="m132.36,6.47l-.25,1.47c-.15-.04-.31-.07-.46-.07-.31,0-.55.12-.71.35-.17.23-.3.58-.4,1.05v3.1h-1.53v-5.83h1.33l.12,1.06c.14-.39.33-.69.56-.9.23-.21.51-.31.82-.31.19,0,.36.03.52.08Z" fill="#e17c05" stroke-width="0"/><path d="m137.22,9.93h-3.28c.04.55.17.94.36,1.16.2.22.47.33.83.33.23,0,.45-.04.65-.12s.42-.2.64-.38l.63.86c-.59.52-1.27.78-2.03.78-.85,0-1.5-.27-1.95-.81s-.67-1.29-.67-2.25.21-1.69.64-2.27c.43-.57,1.03-.86,1.81-.86s1.34.25,1.77.76c.42.51.63,1.24.63,2.19,0,.23-.01.43-.03.59Zm-1.46-1.03c0-.49-.07-.86-.21-1.11-.14-.25-.36-.37-.67-.37-.29,0-.51.12-.66.35s-.25.63-.27,1.2h1.81v-.08Z" fill="#e17c05" stroke-width="0"/><path d="m138.55,12.16c-.26-.26-.38-.63-.38-1.1v-6.83l1.53-.17v6.93c0,.23.1.34.29.34.08,0,.17-.01.25-.04l.3,1.06c-.26.14-.56.21-.92.21-.45,0-.8-.13-1.06-.4Z" fill="#e17c05" stroke-width="0"/><path d="m145.37,11.29c.05.1.15.17.28.23l-.32,1.01c-.32-.04-.58-.12-.79-.24s-.36-.32-.47-.58c-.36.56-.88.85-1.57.85-.52,0-.94-.17-1.25-.5-.31-.33-.47-.77-.47-1.3,0-.63.21-1.11.64-1.45.43-.34,1.04-.51,1.84-.51h.52v-.33c0-.36-.07-.61-.2-.75-.14-.14-.36-.21-.68-.21-.38,0-.85.1-1.4.31l-.34-1c.32-.14.66-.25,1.01-.32.35-.07.68-.11.98-.11.73,0,1.26.17,1.61.51.35.34.52.84.52,1.51v2.45c0,.21.03.36.08.45Zm-1.59-.47v-1.15h-.36c-.37,0-.65.08-.84.24-.18.16-.27.4-.27.72,0,.27.05.48.17.62.11.14.27.21.47.21.36,0,.64-.21.84-.64Z" fill="#e17c05" stroke-width="0"/><path d="m149.86,12.11c-.19.15-.41.26-.66.34-.25.08-.5.12-.75.12-.56,0-.99-.16-1.28-.48-.29-.32-.43-.77-.43-1.35v-3.08h-.75v-1.09h.75v-1.28l1.53-.19v1.46h1.21l-.15,1.09h-1.06v3.07c0,.42.17.63.5.63.18,0,.37-.06.58-.18l.52.95Z" fill="#e17c05" stroke-width="0"/><path d="m151.85,3.82c.17.17.26.38.26.64s-.09.47-.26.64c-.17.17-.39.26-.65.26s-.48-.09-.65-.26c-.17-.17-.26-.39-.26-.64s.09-.47.26-.64c.17-.17.39-.25.65-.25s.48.08.65.25Zm.1,2.73v5.83h-1.53v-5.83h1.53Z" fill="#e17c05" stroke-width="0"/><path d="m157.42,7.17c.45.53.68,1.3.68,2.29s-.23,1.72-.68,2.27c-.46.55-1.08.82-1.88.82s-1.42-.27-1.88-.8c-.45-.54-.68-1.3-.68-2.29s.23-1.73.68-2.28c.45-.54,1.08-.81,1.89-.81s1.42.27,1.88.8Zm-2.61.81c-.16.31-.24.8-.24,1.48s.08,1.2.24,1.5.4.45.73.45.58-.15.74-.46c.16-.31.24-.8.24-1.48s-.08-1.19-.24-1.49c-.16-.3-.4-.46-.73-.46s-.58.15-.74.46Z" fill="#e17c05" stroke-width="0"/><path d="m163.24,6.83c.26.3.39.72.39,1.25v4.3h-1.53v-4.09c0-.27-.04-.47-.13-.58s-.21-.18-.37-.18c-.33,0-.65.27-.96.8v4.05h-1.53v-5.83h1.33l.11.74c.22-.3.46-.53.71-.68.25-.15.55-.23.89-.23.46,0,.82.15,1.08.46Z" fill="#e17c05" stroke-width="0"/><path d="m167.76,6.56c.33.12.62.3.87.52l-.57.85c-.45-.29-.87-.44-1.27-.44-.23,0-.4.05-.52.15-.12.1-.18.23-.18.4,0,.12.03.23.09.31.06.08.17.16.32.24.15.08.39.17.69.27.55.18.96.41,1.23.69.27.28.4.66.4,1.13,0,.58-.22,1.04-.66,1.37-.44.33-.99.5-1.66.5-.44,0-.85-.08-1.22-.23-.37-.15-.69-.35-.96-.61l.74-.82c.47.37.93.55,1.39.55.25,0,.45-.06.59-.17s.22-.27.22-.48c0-.15-.03-.28-.09-.37s-.17-.18-.32-.26c-.16-.08-.4-.18-.72-.29-.54-.18-.94-.41-1.18-.69-.25-.28-.37-.63-.37-1.06,0-.33.09-.63.26-.89s.42-.47.74-.63c.32-.15.7-.23,1.13-.23.37,0,.73.06,1.06.18Z" fill="#e17c05" stroke-width="0"/><path d="m173.78,6.84c.26.31.4.72.4,1.24v4.3h-1.53v-4.09c0-.27-.04-.47-.13-.58s-.21-.18-.38-.18c-.32,0-.64.27-.95.8v4.05h-1.53V4.23l1.53-.15v3.15c.21-.29.44-.5.68-.64.24-.14.52-.21.83-.21.45,0,.81.15,1.08.46Z" fill="#e17c05" stroke-width="0"/><path d="m176.86,3.82c.17.17.26.38.26.64s-.09.47-.26.64c-.17.17-.39.26-.65.26s-.48-.09-.65-.26c-.17-.17-.26-.39-.26-.64s.09-.47.26-.64c.17-.17.39-.25.65-.25s.48.08.65.25Zm.1,2.73v5.83h-1.53v-5.83h1.53Z" fill="#e17c05" stroke-width="0"/><path d="m182.69,7.17c.33.53.49,1.29.49,2.28,0,.62-.08,1.16-.25,1.62-.17.47-.41.83-.73,1.09-.32.26-.69.39-1.11.39-.53,0-.96-.21-1.29-.62v2.68l-1.53.17V6.55h1.35l.08.67c.4-.56.91-.85,1.53-.85s1.13.27,1.46.8Zm-1.09,2.29c0-.72-.07-1.22-.21-1.51-.14-.29-.35-.43-.63-.43-.37,0-.68.24-.95.71v2.64c.23.36.52.54.85.54.63,0,.95-.65.95-1.95Z" fill="#e17c05" stroke-width="0"/><path d="m86.16,16.62c.17.07.34.18.51.33l-.22.26c-.15-.12-.29-.21-.42-.27-.13-.06-.29-.08-.46-.08-.41,0-.73.17-.98.51s-.37.88-.37,1.61.12,1.25.37,1.6c.25.35.57.53.97.53.2,0,.36-.03.5-.1.14-.07.28-.16.43-.29l.22.26c-.33.33-.72.49-1.17.49-.34,0-.64-.09-.91-.28-.27-.18-.47-.46-.62-.83-.15-.37-.22-.83-.22-1.37s.08-1,.23-1.37.36-.65.63-.83c.27-.18.56-.27.9-.27.24,0,.44.04.61.11Z" fill="#e17c05" stroke-width="0"/><path d="m89.56,18.13c.25.33.37.8.37,1.41s-.13,1.07-.38,1.41c-.25.34-.6.51-1.04.51s-.78-.17-1.03-.5c-.25-.33-.37-.8-.37-1.4s.12-1.07.37-1.41.59-.5,1.03-.5.79.16,1.04.49Zm-1.77.23c-.17.26-.26.65-.26,1.19s.08.92.26,1.18.41.39.73.39.56-.13.74-.39c.17-.26.26-.66.26-1.2s-.08-.92-.25-1.18c-.17-.26-.41-.38-.73-.38s-.56.13-.74.39Z" fill="#e17c05" stroke-width="0"/><path d="m93.17,18.13c.25.33.37.8.37,1.41s-.13,1.07-.38,1.41c-.25.34-.6.51-1.04.51s-.78-.17-1.03-.5c-.25-.33-.37-.8-.37-1.4s.12-1.07.37-1.41.59-.5,1.03-.5.79.16,1.04.49Zm-1.77.23c-.17.26-.26.65-.26,1.19s.08.92.26,1.18.41.39.73.39.56-.13.74-.39c.17-.26.26-.66.26-1.2s-.08-.92-.25-1.18c-.17-.26-.41-.38-.73-.38s-.56.13-.74.39Z" fill="#e17c05" stroke-width="0"/><path d="m96.88,18.13c.2.32.3.79.3,1.41s-.11,1.08-.33,1.42c-.22.34-.53.51-.93.51-.2,0-.37-.05-.53-.14-.16-.09-.29-.21-.4-.36v1.8l-.39.06v-5.1h.34l.03.52c.27-.4.61-.6,1.02-.6s.69.16.89.48Zm-.12,1.41c0-.53-.07-.92-.21-1.18-.14-.25-.35-.38-.63-.38-.19,0-.36.06-.51.17-.15.11-.29.26-.41.46v1.98c.23.36.52.55.87.55.6,0,.9-.53.9-1.59Z" fill="#e17c05" stroke-width="0"/><path d="m100.6,19.71h-2.2c.02.49.12.85.3,1.07.18.23.42.34.72.34.17,0,.33-.03.46-.08.13-.06.27-.15.42-.27l.2.25c-.16.14-.33.25-.51.33-.18.07-.37.11-.58.11-.44,0-.78-.16-1.04-.49s-.38-.79-.38-1.39.12-1.08.36-1.42c.24-.34.57-.51.98-.51s.73.15.95.46.33.74.33,1.31c0,.1,0,.2-.01.29Zm-.37-.42c0-.42-.07-.75-.22-.98-.15-.23-.37-.34-.67-.34-.27,0-.49.11-.66.34s-.26.59-.28,1.08h1.83v-.11Z" fill="#e17c05" stroke-width="0"/><path d="m103.27,17.68l-.08.37c-.08-.03-.18-.04-.28-.04-.22,0-.41.09-.54.27-.14.18-.25.46-.34.84v2.26h-.39v-3.66h.34l.03.78c.09-.29.22-.51.37-.65.15-.14.35-.21.57-.21.1,0,.21.01.32.04Z" fill="#e17c05" stroke-width="0"/><path d="m105.91,21c.04.08.11.14.21.18l-.09.27c-.15-.04-.27-.1-.36-.19-.08-.09-.14-.23-.17-.4-.24.4-.58.6-1.02.6-.32,0-.57-.1-.75-.3-.18-.2-.28-.46-.28-.79,0-.38.12-.68.37-.88.25-.2.59-.3,1.04-.3h.58v-.39c0-.28-.06-.49-.18-.62s-.3-.2-.56-.2-.57.07-.91.21l-.11-.29c.39-.16.74-.24,1.06-.24.37,0,.64.1.82.29.18.19.27.47.27.83v1.87c0,.17.02.29.06.37Zm-.45-.53v-1h-.53c-.7,0-1.05.29-1.05.88,0,.26.06.45.18.59s.29.2.5.2c.4,0,.7-.22.9-.67Z" fill="#e17c05" stroke-width="0"/><path d="m108.68,21.23c-.21.15-.45.23-.7.23s-.46-.08-.6-.23c-.14-.15-.22-.37-.22-.65v-2.53h-.55v-.32h.55v-.88l.39-.05v.92h.85l-.05.32h-.8v2.52c0,.37.16.56.47.56.16,0,.32-.05.5-.15l.16.26Z" fill="#e17c05" stroke-width="0"/><path d="m109.73,16.2c.05.06.08.12.08.2,0,.08-.03.15-.08.21s-.12.08-.21.08-.15-.03-.21-.08-.08-.12-.08-.21c0-.08.03-.15.08-.2.05-.06.12-.08.21-.08s.15.03.21.08Zm-.01,1.52v3.66h-.39v-3.66h.39Z" fill="#e17c05" stroke-width="0"/><path d="m113.27,17.72l-1.13,3.66h-.48l-1.18-3.66h.42l.99,3.32.97-3.32h.41Z" fill="#e17c05" stroke-width="0"/><path d="m116.37,19.71h-2.2c.02.49.12.85.3,1.07.18.23.42.34.72.34.17,0,.33-.03.46-.08.13-.06.27-.15.42-.27l.2.25c-.16.14-.33.25-.51.33-.18.07-.37.11-.58.11-.44,0-.78-.16-1.04-.49s-.38-.79-.38-1.39.12-1.08.36-1.42c.24-.34.57-.51.98-.51s.73.15.95.46.33.74.33,1.31c0,.1,0,.2-.01.29Zm-.37-.42c0-.42-.07-.75-.22-.98-.15-.23-.37-.34-.67-.34-.27,0-.49.11-.66.34s-.26.59-.28,1.08h1.83v-.11Z" fill="#e17c05" stroke-width="0"/><path d="m120.68,21.23c-.21.15-.45.23-.7.23s-.46-.08-.6-.23c-.14-.15-.22-.37-.22-.65v-2.53h-.55v-.32h.55v-.88l.39-.05v.92h.85l-.05.32h-.8v2.52c0,.37.16.56.47.56.16,0,.32-.05.5-.15l.16.26Z" fill="#e17c05" stroke-width="0"/><path d="m123.42,18.13c.25.33.37.8.37,1.41s-.13,1.07-.38,1.41c-.25.34-.6.51-1.04.51s-.78-.17-1.03-.5c-.25-.33-.37-.8-.37-1.4s.12-1.07.37-1.41.59-.5,1.03-.5.79.16,1.04.49Zm-1.77.23c-.17.26-.26.65-.26,1.19s.08.92.26,1.18.41.39.73.39.56-.13.74-.39c.17-.26.26-.66.26-1.2s-.08-.92-.25-1.18c-.17-.26-.41-.38-.73-.38s-.56.13-.74.39Z" fill="#e17c05" stroke-width="0"/><path d="m129.01,21.38l-.38-1.32h-1.8l-.38,1.32h-.4l1.44-4.79h.5l1.44,4.79h-.42Zm-2.08-1.66h1.6l-.8-2.8-.8,2.8Z" fill="#e17c05" stroke-width="0"/><path d="m132.36,17.93c.16.19.24.46.24.8v2.65h-.39v-2.6c0-.28-.05-.49-.15-.62-.1-.13-.25-.2-.45-.2s-.38.07-.55.2c-.16.14-.32.33-.47.57v2.64h-.39v-3.66h.34l.04.64c.29-.48.66-.71,1.1-.71.29,0,.52.1.68.29Z" fill="#e17c05" stroke-width="0"/><path d="m135.41,21.23c-.21.15-.45.23-.7.23s-.46-.08-.6-.23c-.14-.15-.22-.37-.22-.65v-2.53h-.55v-.32h.55v-.88l.39-.05v.92h.85l-.05.32h-.8v2.52c0,.37.16.56.47.56.16,0,.32-.05.5-.15l.16.26Z" fill="#e17c05" stroke-width="0"/><path d="m138.16,21c.04.08.11.14.21.18l-.09.27c-.15-.04-.27-.1-.36-.19-.08-.09-.14-.23-.17-.4-.24.4-.58.6-1.02.6-.32,0-.57-.1-.75-.3-.18-.2-.28-.46-.28-.79,0-.38.12-.68.37-.88.25-.2.59-.3,1.04-.3h.58v-.39c0-.28-.06-.49-.18-.62s-.3-.2-.56-.2-.57.07-.91.21l-.11-.29c.39-.16.74-.24,1.06-.24.37,0,.64.1.82.29.18.19.27.47.27.83v1.87c0,.17.02.29.06.37Zm-.45-.53v-1h-.53c-.7,0-1.05.29-1.05.88,0,.26.06.45.18.59s.29.2.5.2c.4,0,.7-.22.9-.67Z" fill="#e17c05" stroke-width="0"/><path d="m141.8,17.79c-.11.04-.23.06-.37.08-.14.01-.32.02-.54.03.38.2.57.53.57,1,0,.37-.11.66-.32.88-.21.22-.51.33-.88.33-.15,0-.3-.03-.43-.08-.17.12-.25.26-.25.43,0,.26.18.39.55.39h.48c.34,0,.61.09.81.26.2.17.29.39.29.67,0,.33-.12.58-.36.77-.24.19-.6.28-1.08.28s-.84-.09-1.06-.26c-.21-.17-.32-.44-.32-.79h.36c0,.26.08.45.23.56.15.11.42.16.8.16.7,0,1.04-.23,1.04-.7,0-.2-.07-.35-.2-.45-.13-.11-.33-.16-.58-.16h-.43c-.29,0-.51-.06-.66-.17-.15-.12-.22-.27-.22-.46,0-.24.12-.44.37-.62-.19-.11-.33-.25-.42-.42-.09-.17-.14-.38-.14-.62,0-.37.11-.67.34-.9s.52-.34.89-.34c.4,0,.69-.01.87-.05.18-.03.37-.09.56-.18l.12.37Zm-2.18.41c-.14.16-.21.39-.21.69s.07.52.22.68.35.25.6.25c.27,0,.47-.08.61-.23.14-.16.21-.39.21-.69s-.07-.52-.21-.69c-.14-.17-.34-.25-.61-.25s-.48.08-.62.25Z" fill="#e17c05" stroke-width="0"/><path d="m144.61,18.13c.25.33.37.8.37,1.41s-.13,1.07-.38,1.41c-.25.34-.6.51-1.04.51s-.78-.17-1.03-.5c-.25-.33-.37-.8-.37-1.4s.12-1.07.37-1.41.59-.5,1.03-.5.79.16,1.04.49Zm-1.77.23c-.17.26-.26.65-.26,1.19s.08.92.26,1.18.41.39.73.39.56-.13.74-.39c.17-.26.26-.66.26-1.2s-.08-.92-.25-1.18c-.17-.26-.41-.38-.73-.38s-.56.13-.74.39Z" fill="#e17c05" stroke-width="0"/><path d="m148.2,17.93c.16.19.24.46.24.8v2.65h-.39v-2.6c0-.28-.05-.49-.15-.62-.1-.13-.25-.2-.45-.2s-.38.07-.55.2c-.16.14-.32.33-.47.57v2.64h-.39v-3.66h.34l.04.64c.29-.48.66-.71,1.1-.71.29,0,.52.1.68.29Z" fill="#e17c05" stroke-width="0"/><path d="m150.12,16.2c.05.06.08.12.08.2,0,.08-.03.15-.08.21s-.12.08-.21.08-.15-.03-.21-.08-.08-.12-.08-.21c0-.08.03-.15.08-.2.05-.06.12-.08.21-.08s.15.03.21.08Zm-.01,1.52v3.66h-.39v-3.66h.39Z" fill="#e17c05" stroke-width="0"/><path d="m152.82,17.74c.17.07.33.17.49.3l-.18.25c-.15-.12-.29-.2-.42-.26s-.28-.08-.44-.08c-.22,0-.4.06-.53.17-.13.11-.2.27-.2.46,0,.17.06.31.17.41.12.1.33.2.63.3.38.12.65.26.81.42.16.16.24.39.24.68,0,.32-.11.58-.34.77-.23.19-.52.29-.86.29-.25,0-.47-.04-.66-.12s-.37-.2-.53-.35l.22-.24c.15.13.3.22.45.28.15.06.33.09.52.09.24,0,.43-.06.58-.19s.22-.3.22-.52c0-.15-.02-.27-.07-.36-.05-.09-.14-.17-.26-.24-.12-.07-.3-.14-.54-.22-.35-.11-.61-.24-.76-.4-.15-.15-.23-.35-.23-.59,0-.18.05-.35.15-.49s.23-.26.4-.34.36-.13.56-.13.4.03.57.1Z" fill="#e17c05" stroke-width="0"/><path d="m155.9,21.23c-.21.15-.45.23-.7.23s-.46-.08-.6-.23c-.14-.15-.22-.37-.22-.65v-2.53h-.55v-.32h.55v-.88l.39-.05v.92h.85l-.05.32h-.8v2.52c0,.37.16.56.47.56.16,0,.32-.05.5-.15l.16.26Z" fill="#e17c05" stroke-width="0"/><path d="m156.94,16.2c.05.06.08.12.08.2,0,.08-.03.15-.08.21s-.12.08-.21.08-.15-.03-.21-.08-.08-.12-.08-.21c0-.08.03-.15.08-.2.05-.06.12-.08.21-.08s.15.03.21.08Zm-.01,1.52v3.66h-.39v-3.66h.39Z" fill="#e17c05" stroke-width="0"/><path d="m159.9,17.73c.15.06.29.15.43.28l-.2.25c-.11-.1-.22-.17-.34-.22-.12-.05-.25-.07-.39-.07-.31,0-.55.13-.73.4s-.27.66-.27,1.19.09.92.27,1.17.42.38.73.38c.14,0,.28-.02.39-.07.12-.05.24-.12.36-.22l.2.25c-.28.26-.59.39-.95.39-.44,0-.78-.16-1.04-.49-.25-.32-.38-.79-.38-1.4s.13-1.08.38-1.42c.25-.34.6-.51,1.03-.51.18,0,.35.03.5.09Z" fill="#e17c05" stroke-width="0"/><path d="m164.34,114.75c.51.41.77,1.02.77,1.83,0,.85-.25,1.49-.76,1.92-.51.43-1.2.64-2.09.64h-.62v2.61h-1.58v-7.61h2.07c.96,0,1.7.21,2.21.62Zm-1.19,2.9c.22-.21.33-.57.33-1.07,0-.45-.11-.78-.33-.99-.22-.21-.56-.32-1.01-.32h-.5v2.69h.51c.45,0,.78-.11,1-.32Z" fill="#5f4690" stroke-width="0"/><path d="m169.09,115.84l-.25,1.47c-.15-.04-.31-.07-.46-.07-.31,0-.55.12-.71.35-.17.23-.3.58-.4,1.05v3.1h-1.53v-5.83h1.33l.12,1.06c.14-.39.33-.69.56-.9.23-.21.51-.31.82-.31.19,0,.36.03.52.08Z" fill="#5f4690" stroke-width="0"/><path d="m173.6,120.66c.05.09.15.17.28.23l-.32,1.01c-.32-.04-.58-.12-.79-.24-.2-.12-.36-.32-.47-.58-.36.56-.88.85-1.57.85-.52,0-.94-.17-1.25-.5-.31-.33-.47-.77-.47-1.3,0-.63.21-1.12.64-1.45s1.04-.51,1.84-.51h.52v-.33c0-.36-.07-.61-.2-.75-.14-.14-.36-.21-.68-.21-.38,0-.85.1-1.4.31l-.34-1c.32-.14.66-.25,1.01-.32.35-.07.68-.11.98-.11.73,0,1.26.17,1.61.51.35.34.52.84.52,1.51v2.45c0,.21.03.36.08.45Zm-1.59-.47v-1.15h-.36c-.37,0-.65.08-.84.24-.18.16-.27.4-.27.72,0,.27.05.48.17.62.11.14.27.21.47.21.36,0,.64-.21.84-.64Z" fill="#5f4690" stroke-width="0"/><path d="m178.1,115.91c.29.11.56.29.81.52l-.66.88c-.34-.26-.67-.38-1-.38-.36,0-.63.15-.81.45s-.27.79-.27,1.49.09,1.15.27,1.42c.18.28.45.41.79.41.18,0,.34-.03.49-.09.15-.06.32-.15.51-.29l.67.91c-.51.45-1.1.68-1.75.68-.81,0-1.45-.26-1.91-.79-.46-.53-.69-1.28-.69-2.25,0-.63.1-1.18.31-1.66.21-.47.51-.84.9-1.09s.84-.38,1.36-.38c.35,0,.67.06.96.17Z" fill="#5f4690" stroke-width="0"/><path d="m182.87,121.48c-.19.15-.41.26-.66.34-.25.08-.5.12-.75.12-.56,0-.99-.16-1.28-.48-.29-.32-.43-.77-.43-1.35v-3.08h-.75v-1.09h.75v-1.28l1.53-.19v1.46h1.21l-.15,1.09h-1.06v3.07c0,.42.17.63.5.63.18,0,.37-.06.58-.18l.52.95Z" fill="#5f4690" stroke-width="0"/><path d="m184.86,113.19c.17.17.26.38.26.64s-.09.47-.26.64c-.17.17-.39.26-.65.26s-.48-.09-.65-.26c-.17-.17-.26-.39-.26-.64s.09-.47.26-.64c.17-.17.39-.25.65-.25s.48.08.65.25Zm.1,2.73v5.83h-1.53v-5.83h1.53Z" fill="#5f4690" stroke-width="0"/><path d="m189.53,115.91c.29.11.56.29.81.52l-.66.88c-.34-.26-.67-.38-1-.38-.36,0-.63.15-.81.45s-.27.79-.27,1.49.09,1.15.27,1.42c.18.28.45.41.79.41.18,0,.34-.03.49-.09.15-.06.32-.15.51-.29l.67.91c-.51.45-1.1.68-1.75.68-.81,0-1.45-.26-1.91-.79-.46-.53-.69-1.28-.69-2.25,0-.63.1-1.18.31-1.66.21-.47.51-.84.9-1.09s.84-.38,1.36-.38c.35,0,.67.06.96.17Z" fill="#5f4690" stroke-width="0"/><path d="m195.15,120.66c.05.09.15.17.28.23l-.32,1.01c-.32-.04-.58-.12-.79-.24-.2-.12-.36-.32-.47-.58-.36.56-.88.85-1.57.85-.52,0-.94-.17-1.25-.5-.31-.33-.47-.77-.47-1.3,0-.63.21-1.12.64-1.45s1.04-.51,1.84-.51h.52v-.33c0-.36-.07-.61-.2-.75-.14-.14-.36-.21-.68-.21-.38,0-.85.1-1.4.31l-.34-1c.32-.14.66-.25,1.01-.32.35-.07.68-.11.98-.11.73,0,1.26.17,1.61.51.35.34.52.84.52,1.51v2.45c0,.21.03.36.08.45Zm-1.59-.47v-1.15h-.36c-.37,0-.65.08-.84.24-.18.16-.27.4-.27.72,0,.27.05.48.17.62.11.14.27.21.47.21.36,0,.64-.21.84-.64Z" fill="#5f4690" stroke-width="0"/><path d="m196.61,121.53c-.26-.26-.38-.63-.38-1.1v-6.83l1.53-.17v6.93c0,.23.1.34.29.34.08,0,.17-.01.25-.04l.3,1.06c-.26.14-.56.21-.92.21-.45,0-.8-.13-1.06-.4Z" fill="#5f4690" stroke-width="0"/><path d="m205.79,116.54c.45.53.68,1.3.68,2.29s-.23,1.72-.68,2.27c-.46.55-1.08.83-1.88.83s-1.42-.27-1.88-.8c-.45-.54-.68-1.3-.68-2.29s.23-1.73.68-2.28c.45-.54,1.08-.81,1.89-.81s1.42.27,1.88.8Zm-2.61.81c-.16.31-.24.8-.24,1.49s.08,1.2.24,1.5.4.45.73.45.58-.15.74-.46c.16-.31.24-.8.24-1.48s-.08-1.19-.24-1.49c-.16-.3-.4-.46-.73-.46s-.58.15-.74.46Z" fill="#5f4690" stroke-width="0"/><path d="m211.91,116.54c.33.53.49,1.29.49,2.28,0,.62-.08,1.16-.25,1.62-.17.47-.41.83-.73,1.09-.32.26-.69.39-1.11.39-.53,0-.96-.21-1.29-.62v2.68l-1.53.17v-8.24h1.35l.08.67c.4-.56.91-.85,1.53-.85s1.13.27,1.46.8Zm-1.09,2.29c0-.72-.07-1.22-.21-1.51s-.35-.43-.63-.43c-.37,0-.68.24-.95.71v2.64c.23.36.52.54.85.54.63,0,.95-.65.95-1.95Z" fill="#5f4690" stroke-width="0"/><path d="m217.98,119.3h-3.28c.04.55.17.93.36,1.16.2.22.47.33.82.33.23,0,.45-.04.65-.12.2-.08.42-.2.64-.38l.63.86c-.59.52-1.27.78-2.04.78-.85,0-1.5-.27-1.95-.81s-.67-1.29-.67-2.25.21-1.69.64-2.27c.43-.57,1.03-.86,1.81-.86s1.34.25,1.76.76c.42.51.63,1.24.63,2.2,0,.23-.01.42-.03.59Zm-1.46-1.03c0-.49-.07-.86-.21-1.11-.14-.25-.36-.37-.67-.37-.29,0-.51.12-.66.35-.15.24-.25.63-.28,1.2h1.81v-.08Z" fill="#5f4690" stroke-width="0"/><path d="m222.34,115.84l-.25,1.47c-.15-.04-.31-.07-.46-.07-.31,0-.55.12-.71.35-.17.23-.3.58-.4,1.05v3.1h-1.53v-5.83h1.33l.12,1.06c.14-.39.33-.69.56-.9.23-.21.51-.31.83-.31.19,0,.36.03.52.08Z" fill="#5f4690" stroke-width="0"/><path d="m226.85,120.66c.05.09.15.17.28.23l-.32,1.01c-.32-.04-.59-.12-.79-.24-.2-.12-.36-.32-.47-.58-.36.56-.88.85-1.57.85-.52,0-.94-.17-1.25-.5-.31-.33-.47-.77-.47-1.3,0-.63.21-1.12.64-1.45.43-.34,1.04-.51,1.84-.51h.52v-.33c0-.36-.07-.61-.2-.75-.14-.14-.36-.21-.68-.21-.38,0-.85.1-1.4.31l-.34-1c.32-.14.66-.25,1.01-.32s.68-.11.98-.11c.73,0,1.26.17,1.61.51.35.34.52.84.52,1.51v2.45c0,.21.03.36.08.45Zm-1.59-.47v-1.15h-.36c-.38,0-.65.08-.84.24-.18.16-.28.4-.28.72,0,.27.05.48.17.62.11.14.27.21.47.21.36,0,.64-.21.84-.64Z" fill="#5f4690" stroke-width="0"/><path d="m231.35,121.48c-.19.15-.41.26-.66.34-.25.08-.5.12-.75.12-.56,0-.99-.16-1.28-.48-.29-.32-.43-.77-.43-1.35v-3.08h-.75v-1.09h.75v-1.28l1.53-.19v1.46h1.21l-.15,1.09h-1.06v3.07c0,.42.17.63.5.63.18,0,.37-.06.58-.18l.52.95Z" fill="#5f4690" stroke-width="0"/><path d="m233.33,113.19c.17.17.26.38.26.64s-.09.47-.26.64c-.17.17-.39.26-.66.26s-.48-.09-.65-.26-.26-.39-.26-.64.09-.47.26-.64c.17-.17.39-.25.65-.25s.48.08.66.25Zm.1,2.73v5.83h-1.53v-5.83h1.53Z" fill="#5f4690" stroke-width="0"/><path d="m238.87,116.2c.26.3.39.72.39,1.25v4.3h-1.53v-4.09c0-.27-.04-.47-.13-.58s-.21-.18-.37-.18c-.33,0-.65.27-.96.8v4.05h-1.53v-5.83h1.33l.11.74c.22-.3.46-.53.71-.68s.55-.23.89-.23c.46,0,.82.15,1.08.46Z" fill="#5f4690" stroke-width="0"/><path d="m245.3,116.24c-.34.14-.84.21-1.51.21.34.15.59.35.75.59.16.24.24.55.24.91,0,.58-.2,1.05-.59,1.41-.4.36-.94.54-1.62.54-.21,0-.42-.02-.61-.07-.06.04-.11.09-.14.17-.04.07-.06.15-.06.23,0,.12.04.22.13.29.08.07.24.1.48.1h.74c.62,0,1.12.15,1.5.46.37.31.56.7.56,1.19,0,.58-.24,1.04-.71,1.38-.47.34-1.15.51-2.02.51-.94,0-1.59-.16-1.96-.47-.37-.31-.55-.77-.55-1.38h1.36c0,.29.08.5.24.63s.46.19.92.19c.43,0,.74-.06.91-.19.18-.13.26-.31.26-.54,0-.45-.28-.67-.85-.67h-.62c-.57,0-.99-.1-1.26-.31-.27-.21-.41-.48-.41-.81,0-.21.06-.41.17-.6.11-.19.27-.35.47-.48-.34-.19-.58-.42-.73-.68-.15-.26-.23-.59-.23-.98,0-.64.21-1.16.64-1.54.42-.38.99-.57,1.69-.56.53,0,.96-.05,1.31-.16.34-.11.71-.28,1.1-.51l.39,1.15Zm-3.4.8c-.14.18-.21.45-.21.8s.07.62.21.81c.14.19.34.28.6.28.27,0,.47-.09.61-.26.14-.18.2-.46.2-.85,0-.36-.07-.62-.2-.79-.14-.17-.34-.25-.61-.25s-.47.09-.61.27Z" fill="#5f4690" stroke-width="0"/><path d="m252.83,119.3h-3.28c.04.55.17.93.36,1.16.2.22.47.33.83.33.23,0,.45-.04.65-.12s.42-.2.64-.38l.63.86c-.59.52-1.27.78-2.04.78-.85,0-1.5-.27-1.95-.81s-.67-1.29-.67-2.25.21-1.69.64-2.27c.43-.57,1.03-.86,1.81-.86s1.34.25,1.76.76c.42.51.63,1.24.63,2.2,0,.23-.01.42-.03.59Zm-1.46-1.03c0-.49-.07-.86-.21-1.11-.14-.25-.36-.37-.67-.37-.29,0-.51.12-.66.35-.15.24-.25.63-.28,1.2h1.82v-.08Z" fill="#5f4690" stroke-width="0"/><path d="m257.95,116.2c.26.3.39.72.39,1.25v4.3h-1.53v-4.09c0-.27-.04-.47-.13-.58s-.21-.18-.37-.18c-.33,0-.65.27-.96.8v4.05h-1.53v-5.83h1.33l.11.74c.22-.3.46-.53.71-.68.25-.15.55-.23.89-.23.46,0,.82.15,1.08.46Z" fill="#5f4690" stroke-width="0"/><path d="m264.02,115.92l-1.65,5.83h-1.81l-1.69-5.83h1.62l.99,4.64,1.02-4.64h1.53Z" fill="#5f4690" stroke-width="0"/><path d="m266.07,113.19c.17.17.26.38.26.64s-.09.47-.26.64c-.17.17-.39.26-.66.26s-.48-.09-.65-.26-.26-.39-.26-.64.09-.47.26-.64c.17-.17.39-.25.65-.25s.48.08.66.25Zm.1,2.73v5.83h-1.53v-5.83h1.53Z" fill="#5f4690" stroke-width="0"/><path d="m270.84,115.84l-.25,1.47c-.15-.04-.31-.07-.46-.07-.31,0-.55.12-.71.35-.17.23-.3.58-.4,1.05v3.1h-1.53v-5.83h1.33l.12,1.06c.14-.39.33-.69.56-.9s.51-.31.82-.31c.19,0,.36.03.52.08Z" fill="#5f4690" stroke-width="0"/><path d="m275.32,116.54c.45.53.68,1.3.68,2.29s-.23,1.72-.68,2.27-1.08.83-1.88.83-1.42-.27-1.88-.8-.68-1.3-.68-2.29.23-1.73.68-2.28c.45-.54,1.08-.81,1.89-.81s1.42.27,1.88.8Zm-2.61.81c-.16.31-.24.8-.24,1.49s.08,1.2.24,1.5.4.45.73.45.58-.15.74-.46c.16-.31.24-.8.24-1.48s-.08-1.19-.24-1.49c-.16-.3-.4-.46-.73-.46s-.58.15-.74.46Z" fill="#5f4690" stroke-width="0"/><path d="m281.14,116.2c.26.3.39.72.39,1.25v4.3h-1.53v-4.09c0-.27-.04-.47-.13-.58-.08-.12-.21-.18-.37-.18-.33,0-.65.27-.96.8v4.05h-1.53v-5.83h1.33l.11.74c.22-.3.46-.53.71-.68.25-.15.55-.23.89-.23.46,0,.82.15,1.08.46Z" fill="#5f4690" stroke-width="0"/><path d="m289.56,116.21c.26.31.39.72.39,1.24v4.3h-1.52v-4.09c0-.51-.15-.76-.45-.76-.16,0-.31.06-.45.19-.14.13-.28.32-.41.58v4.08h-1.51v-4.09c0-.51-.15-.76-.45-.76-.17,0-.32.06-.46.19-.14.13-.27.32-.4.58v4.08h-1.52v-5.83h1.33l.11.73c.2-.29.42-.52.67-.67.25-.15.53-.23.84-.23.3,0,.56.08.78.25.22.17.38.4.48.71.43-.64.95-.96,1.56-.96.42,0,.75.15,1.01.46Z" fill="#5f4690" stroke-width="0"/><path d="m295.74,119.3h-3.28c.04.55.17.93.36,1.16.2.22.47.33.83.33.23,0,.45-.04.65-.12.2-.08.42-.2.64-.38l.63.86c-.59.52-1.27.78-2.03.78-.85,0-1.5-.27-1.95-.81s-.67-1.29-.67-2.25.21-1.69.64-2.27,1.03-.86,1.81-.86,1.34.25,1.77.76c.42.51.63,1.24.63,2.2,0,.23-.01.42-.03.59Zm-1.46-1.03c0-.49-.07-.86-.21-1.11-.14-.25-.36-.37-.67-.37-.29,0-.51.12-.66.35-.15.24-.25.63-.27,1.2h1.82v-.08Z" fill="#5f4690" stroke-width="0"/><path d="m300.86,116.2c.26.3.39.72.39,1.25v4.3h-1.53v-4.09c0-.27-.04-.47-.13-.58s-.21-.18-.37-.18c-.33,0-.65.27-.96.8v4.05h-1.53v-5.83h1.33l.11.74c.22-.3.46-.53.71-.68s.55-.23.89-.23c.46,0,.82.15,1.08.46Z" fill="#5f4690" stroke-width="0"/><path d="m305.76,121.48c-.19.15-.41.26-.66.34-.25.08-.5.12-.75.12-.57,0-.99-.16-1.28-.48-.29-.32-.43-.77-.43-1.35v-3.08h-.75v-1.09h.75v-1.28l1.53-.19v1.46h1.21l-.15,1.09h-1.06v3.07c0,.42.17.63.5.63.18,0,.37-.06.58-.18l.52.95Z" fill="#5f4690" stroke-width="0"/><path d="m162.44,125.96l-.04.36h-1.26v4.44h-.4v-4.44h-1.27v-.36h2.98Z" fill="#5f4690" stroke-width="0"/><path d="m164.96,127.5c.25.33.37.8.37,1.41s-.13,1.07-.38,1.41-.6.51-1.04.51-.78-.17-1.03-.5c-.25-.33-.37-.8-.37-1.4s.12-1.07.37-1.41.59-.5,1.03-.5.79.16,1.04.49Zm-1.77.23c-.17.26-.26.65-.26,1.19s.08.92.26,1.18c.17.26.41.39.73.39s.56-.13.74-.39c.17-.26.26-.66.26-1.2s-.08-.92-.25-1.18c-.17-.26-.41-.38-.73-.38s-.56.13-.74.39Z" fill="#5f4690" stroke-width="0"/><path d="m166.52,130.66c-.11-.11-.16-.27-.16-.48v-4.58l.39-.05v4.62c0,.21.09.32.27.32.07,0,.15-.02.22-.05l.1.29c-.11.07-.24.1-.39.1-.18,0-.33-.06-.43-.17Z" fill="#5f4690" stroke-width="0"/><path d="m170.5,129.08h-2.2c.02.49.12.85.3,1.07s.42.34.72.34c.17,0,.33-.03.46-.08.13-.06.27-.15.42-.27l.2.25c-.16.14-.33.25-.51.33-.18.07-.37.11-.58.11-.44,0-.78-.16-1.04-.49-.25-.33-.38-.79-.38-1.39s.12-1.08.36-1.42c.24-.34.57-.51.98-.51s.73.15.95.46c.22.31.33.74.33,1.31,0,.1,0,.2-.01.29Zm-.37-.42c0-.42-.07-.75-.22-.98-.15-.23-.37-.34-.67-.34-.27,0-.49.11-.66.34s-.26.59-.28,1.08h1.83v-.11Z" fill="#5f4690" stroke-width="0"/><path d="m173.17,127.05l-.08.37c-.08-.03-.18-.04-.28-.04-.22,0-.41.09-.54.27-.14.18-.25.46-.34.84v2.26h-.39v-3.66h.34l.03.78c.09-.29.22-.51.37-.65.15-.14.35-.21.57-.21.1,0,.21.01.32.04Z" fill="#5f4690" stroke-width="0"/><path d="m175.81,130.37c.04.08.11.14.21.18l-.09.27c-.15-.04-.27-.1-.36-.19-.08-.09-.14-.22-.17-.4-.24.4-.58.6-1.02.6-.32,0-.57-.1-.75-.3s-.28-.46-.28-.79c0-.38.12-.67.37-.88.25-.2.59-.3,1.04-.3h.58v-.39c0-.28-.06-.49-.18-.62s-.3-.2-.56-.2-.57.07-.91.21l-.11-.29c.39-.16.74-.25,1.06-.25.37,0,.64.1.82.29.18.19.27.47.27.83v1.87c0,.17.02.29.06.37Zm-.45-.53v-1h-.53c-.7,0-1.05.29-1.05.88,0,.26.06.45.18.59.12.14.29.2.5.2.4,0,.7-.22.9-.67Z" fill="#5f4690" stroke-width="0"/><path d="m179.22,127.3c.16.19.24.46.24.8v2.65h-.39v-2.6c0-.28-.05-.49-.15-.62-.1-.13-.25-.2-.45-.2s-.38.07-.55.2c-.16.13-.32.33-.47.57v2.64h-.39v-3.66h.34l.04.64c.29-.48.66-.71,1.1-.71.29,0,.52.1.68.29Z" fill="#5f4690" stroke-width="0"/><path d="m182.39,127.1c.15.06.29.15.43.28l-.2.25c-.11-.1-.22-.17-.34-.22s-.25-.07-.39-.07c-.31,0-.55.13-.73.4s-.27.66-.27,1.19.09.92.27,1.17.42.38.73.38c.14,0,.28-.02.39-.07s.24-.12.36-.22l.2.25c-.28.26-.59.39-.95.39-.44,0-.78-.16-1.04-.49-.25-.32-.38-.79-.38-1.4s.13-1.08.38-1.42c.25-.34.6-.51,1.03-.51.18,0,.35.03.5.09Z" fill="#5f4690" stroke-width="0"/><path d="m185.91,129.08h-2.2c.02.49.12.85.3,1.07s.42.34.72.34c.17,0,.33-.03.46-.08.13-.06.27-.15.42-.27l.2.25c-.16.14-.33.25-.51.33-.18.07-.37.11-.58.11-.44,0-.78-.16-1.04-.49-.25-.33-.38-.79-.38-1.39s.12-1.08.36-1.42c.24-.34.57-.51.98-.51s.73.15.95.46c.22.31.33.74.33,1.31,0,.1,0,.2-.01.29Zm-.37-.42c0-.42-.07-.75-.22-.98-.15-.23-.37-.34-.67-.34-.27,0-.49.11-.66.34s-.26.59-.28,1.08h1.83v-.11Z" fill="#5f4690" stroke-width="0"/><path d="m190.22,130.6c-.21.15-.45.23-.7.23s-.46-.08-.6-.23-.22-.37-.22-.65v-2.53h-.55v-.32h.55v-.88l.39-.05v.92h.85l-.05.32h-.8v2.52c0,.37.16.56.47.56.16,0,.32-.05.5-.15l.16.26Z" fill="#5f4690" stroke-width="0"/><path d="m192.96,127.5c.25.33.37.8.37,1.41s-.13,1.07-.38,1.41-.6.51-1.04.51-.78-.17-1.03-.5c-.25-.33-.37-.8-.37-1.4s.12-1.07.37-1.41.59-.5,1.03-.5.79.16,1.04.49Zm-1.77.23c-.17.26-.26.65-.26,1.19s.08.92.26,1.18c.17.26.41.39.73.39s.56-.13.74-.39c.17-.26.26-.66.26-1.2s-.08-.92-.25-1.18c-.17-.26-.41-.38-.73-.38s-.56.13-.74.39Z" fill="#5f4690" stroke-width="0"/><path d="m198.37,125.96l-.05.34h-1.76v1.8h1.53v.34h-1.53v1.97h1.85v.34h-2.25v-4.79h2.21Z" fill="#5f4690" stroke-width="0"/><path d="m200.4,128.79l1.16,1.96h-.45l-.95-1.71-.95,1.71h-.43l1.15-1.95-1.02-1.71h.44l.8,1.48.82-1.48h.43l-1.02,1.7Z" fill="#5f4690" stroke-width="0"/><path d="m204.57,127.5c.2.32.3.79.3,1.41s-.11,1.08-.33,1.42c-.22.34-.53.51-.93.51-.2,0-.37-.05-.53-.14-.16-.09-.29-.21-.4-.36v1.8l-.39.06v-5.1h.34l.03.52c.27-.4.61-.6,1.02-.6s.69.16.89.48Zm-.12,1.41c0-.53-.07-.92-.21-1.18-.14-.25-.35-.38-.63-.38-.19,0-.36.06-.51.17s-.29.26-.41.46v1.98c.23.36.52.55.87.55.6,0,.9-.53.9-1.59Z" fill="#5f4690" stroke-width="0"/><path d="m208.28,130.75h-.34l-.03-.63c-.26.47-.61.71-1.06.71-.29,0-.52-.09-.69-.28s-.25-.45-.25-.78v-2.68h.39v2.65c0,.51.21.76.63.76.21,0,.38-.07.54-.2.15-.13.29-.32.42-.55v-2.66h.39v3.66Z" fill="#5f4690" stroke-width="0"/><path d="m209.73,130.66c-.11-.11-.16-.27-.16-.48v-4.58l.39-.05v4.62c0,.21.09.32.27.32.07,0,.15-.02.22-.05l.1.29c-.11.07-.24.1-.39.1-.18,0-.33-.06-.43-.17Z" fill="#5f4690" stroke-width="0"/><path d="m212.79,127.11c.17.07.33.17.49.3l-.18.25c-.15-.12-.29-.2-.42-.26s-.28-.08-.44-.08c-.22,0-.4.06-.53.17-.13.11-.2.27-.2.46,0,.17.06.31.17.41.12.1.33.2.63.3.38.12.65.26.81.42.16.16.24.39.24.67,0,.32-.11.58-.34.77-.23.19-.52.29-.86.29-.25,0-.47-.04-.66-.12-.19-.08-.37-.2-.53-.35l.22-.24c.15.13.3.22.45.28.15.06.33.09.52.09.24,0,.43-.06.58-.19s.22-.3.22-.52c0-.15-.02-.27-.07-.36-.05-.09-.14-.17-.26-.24s-.3-.14-.54-.22c-.35-.11-.61-.25-.76-.4-.15-.15-.23-.35-.23-.59,0-.18.05-.35.15-.49s.23-.26.4-.34.36-.13.56-.13.4.03.57.1Z" fill="#5f4690" stroke-width="0"/><path d="m214.74,125.57c.05.06.08.12.08.2,0,.08-.03.15-.08.21-.05.05-.12.08-.21.08s-.15-.03-.21-.08c-.05-.05-.08-.12-.08-.21,0-.08.03-.15.08-.2.05-.06.12-.08.21-.08s.15.03.21.08Zm-.01,1.52v3.66h-.39v-3.66h.39Z" fill="#5f4690" stroke-width="0"/><path d="m218.23,127.5c.25.33.37.8.37,1.41s-.12,1.07-.38,1.41-.6.51-1.04.51-.78-.17-1.03-.5-.37-.8-.37-1.4.12-1.07.37-1.41c.25-.34.59-.5,1.03-.5s.79.16,1.04.49Zm-1.77.23c-.17.26-.26.65-.26,1.19s.08.92.26,1.18c.17.26.41.39.73.39s.56-.13.74-.39c.17-.26.26-.66.26-1.2s-.08-.92-.25-1.18c-.17-.26-.41-.38-.73-.38s-.56.13-.74.39Z" fill="#5f4690" stroke-width="0"/><path d="m221.82,127.3c.16.19.24.46.24.8v2.65h-.39v-2.6c0-.28-.05-.49-.15-.62-.1-.13-.25-.2-.45-.2s-.38.07-.55.2c-.16.13-.32.33-.47.57v2.64h-.39v-3.66h.34l.04.64c.29-.48.66-.71,1.1-.71.29,0,.52.1.68.29Z" fill="#5f4690" stroke-width="0"/><circle cx="83" cy="60.61" r="5.59" fill="#cc503e" stroke-width="0"/><circle cx="283" cy="52.07" r="5.59" fill="#1d6996" stroke-width="0"/><line x1="24.86" y1="60.62" x2="191.17" y2="60.62" fill="none" stroke="#cc503e" stroke-miterlimit="10"/><line x1="164" y1="52.07" x2="367" y2="52.07" fill="none" stroke="#1d6996" stroke-miterlimit="10"/><line x1="83.25" y1="34.64" x2="283.19" y2="34.64" fill="none" stroke="#e17c05" stroke-miterlimit="10" stroke-width=".5"/><rect x="83" y="33.02" width=".5" height="3.25" fill="#e17c05" stroke-width="0"/><rect x="282.94" y="33.02" width=".5" height="3.25" fill="#e17c05" stroke-width="0"/><line x1="164.25" y1="97" x2="190.92" y2="97" fill="none" stroke="#5f4690" stroke-miterlimit="10" stroke-width=".5"/><rect x="164" y="95.37" width=".5" height="3.25" fill="#5f4690" stroke-width="0"/><rect x="190.67" y="95.37" width=".5" height="3.25" fill="#5f4690" stroke-width="0"/><line x1="70.5" y1="72.48" x2="76.23" y2="66.75" fill="none" stroke="#cc503e" stroke-miterlimit="10" stroke-width=".5"/><polygon points="76.42 68.13 75.97 67.01 74.85 66.56 77.5 65.48 76.42 68.13" fill="#cc503e" stroke-width="0"/><line x1="177.5" y1="108.48" x2="177.5" y2="105.27" fill="none" stroke="#5f4690" stroke-miterlimit="10" stroke-width=".5"/><polygon points="178.61 106.11 177.5 105.64 176.39 106.11 177.5 103.48 178.61 106.11" fill="#5f4690" stroke-width="0"/><line x1="97.5" y1="25.98" x2="97.5" y2="29.19" fill="none" stroke="#e17c05" stroke-miterlimit="10" stroke-width=".5"/><polygon points="96.39 28.35 97.5 28.82 98.61 28.35 97.5 30.98 96.39 28.35" fill="#e17c05" stroke-width="0"/><line x1="342.5" y1="61.98" x2="342.5" y2="55.27" fill="none" stroke="#1d6996" stroke-miterlimit="10" stroke-width=".5"/><polygon points="343.61 56.11 342.5 55.64 341.39 56.11 342.5 53.48 343.61 56.11" fill="#1d6996" stroke-width="0"/><line x1="114.5" y1="70.98" x2="114.5" y2="64.27" fill="none" stroke="#cc503e" stroke-miterlimit="10" stroke-width=".5"/><polygon points="115.61 65.11 114.5 64.64 113.39 65.11 114.5 62.48 115.61 65.11" fill="#cc503e" stroke-width="0"/><line x1="283" y1="63.48" x2="283" y2="60.27" fill="none" stroke="#1d6996" stroke-miterlimit="10" stroke-width=".5"/><polygon points="284.11 61.11 283 60.64 281.89 61.11 283 58.48 284.11 61.11" fill="#1d6996" stroke-width="0"/></svg>